<svg width="96" height="96" viewBox="0 0 96 96" fill="none" xmlns="http://www.w3.org/2000/svg">
<path d="M48.0009 16.834C16.7213 16.834 12.5445 17.1598 8.53506 21.2847C4.52565 25.4096 4.00195 31.9623 4.00195 47.9999C4.00195 64.0375 4.52565 70.5921 8.53506 74.7151C12.5445 78.8382 16.7213 79.1659 48.0009 79.1659C79.2805 79.1659 83.4574 78.8382 87.4668 74.7151C91.4762 70.5902 91.9999 64.0375 91.9999 47.9999C91.9999 31.9623 91.4762 25.4096 87.4668 21.2847C83.4574 17.1598 79.2805 16.834 48.0009 16.834ZM48.0009 24.1671C73.6101 24.1671 79.862 24.2816 81.9812 26.4265C84.1005 28.5715 84.6667 34.3199 84.6667 47.9999C84.6667 61.6799 84.1005 67.4284 81.9812 69.5733C79.862 71.7183 73.6101 71.8327 48.0009 71.8327C22.3917 71.8327 16.1399 71.7183 14.0206 69.5733C11.9013 67.4284 11.3924 61.6799 11.3924 47.9999C11.3924 34.3199 11.9013 28.5715 14.0206 26.4265C16.1399 24.2816 22.3917 24.1671 48.0009 24.1671ZM40.5747 35.1991V60.8007L62.8427 47.8997L40.5747 35.1991Z" fill="white"/>
</svg>
