<svg width="96" height="96" viewBox="0 0 96 96" fill="none" xmlns="http://www.w3.org/2000/svg">
<path d="M29.9016 4C5.88197 4 4 5.87977 4 29.9016V66.0984C4 90.118 5.88197 92 29.9016 92H66.0984C90.118 92 92 90.1202 92 66.0984V29.9016C92 5.87977 90.1202 4 66.0984 4H29.9016ZM24.1695 12.8H71.8305C82.3751 12.8 83.2 13.6249 83.2 24.1695V71.8305C83.2 82.3751 82.3729 83.2 71.8305 83.2H24.1695C13.6249 83.2 12.8 82.3729 12.8 71.8305V24.1695C12.8 13.6249 13.6249 12.8 24.1695 12.8ZM49.6285 20.9254V57.4488C49.6285 62.4692 45.2633 65.0629 42.1305 65.0629C39.7699 65.0629 34.4004 63.2121 34.4004 57.3887C34.4004 51.2749 39.4099 49.7145 42.1863 49.7145C43.8033 49.7145 44.4379 50.0625 44.4379 50.0625V40.3172C44.4379 40.3172 43.2264 40.1367 41.8426 40.1367C31.9008 40.1367 24.8226 48.1839 24.8226 57.3887C24.8226 65.1657 30.9044 74.5805 42.0144 74.5805C53.8482 74.5805 59.2664 64.7111 59.2664 57.4445V39.3289C59.2664 39.3289 64.5405 43.0199 71.6113 43.0199V33.7902C63.4999 33.2116 59.1639 27.763 58.8625 20.9254H49.6285Z" fill="white"/>
</svg>
