<svg width="96" height="96" viewBox="0 0 96 96" fill="none" xmlns="http://www.w3.org/2000/svg">
<path d="M28.4444 4C14.9658 4 4 14.9658 4 28.4444V67.5555C4 81.0342 14.9658 92 28.4444 92H67.5555C81.0342 92 92 81.0342 92 67.5555V28.4444C92 14.9658 81.0342 4 67.5555 4H28.4444ZM28.4444 13.7778H67.5555C75.6418 13.7778 82.2222 20.3582 82.2222 28.4444V67.5555C82.2222 75.6418 75.6418 82.2222 67.5555 82.2222H28.4444C20.3582 82.2222 13.7778 75.6418 13.7778 67.5555V28.4444C13.7778 20.3582 20.3582 13.7778 28.4444 13.7778ZM72.4444 18.6667C69.7444 18.6667 67.5555 20.8555 67.5555 23.5555C67.5555 26.2556 69.7444 28.4444 72.4444 28.4444C75.1445 28.4444 77.3333 26.2556 77.3333 23.5555C77.3333 20.8555 75.1445 18.6667 72.4444 18.6667ZM48 23.5555C34.5213 23.5555 23.5555 34.5213 23.5555 48C23.5555 61.4786 34.5213 72.4444 48 72.4444C61.4786 72.4444 72.4444 61.4786 72.4444 48C72.4444 34.5213 61.4786 23.5555 48 23.5555ZM48 33.3333C56.0862 33.3333 62.6666 39.9138 62.6666 48C62.6666 56.0862 56.0862 62.6666 48 62.6666C39.9138 62.6666 33.3333 56.0862 33.3333 48C33.3333 39.9138 39.9138 33.3333 48 33.3333Z" fill="white"/>
</svg>
