<svg width="96" height="96" viewBox="0 0 96 96" fill="none" xmlns="http://www.w3.org/2000/svg">
<mask id="mask0_435_470" style="mask-type:luminance" maskUnits="userSpaceOnUse" x="4" y="4" width="88" height="88">
<path d="M92 4H4V92H92V4Z" fill="white"/>
</mask>
<g mask="url(#mask0_435_470)">
<path d="M79.0306 16.8042C74.9968 12.7296 70.192 9.49883 64.8958 7.30049C59.6007 5.10218 53.9203 3.98029 48.1864 4.00026C24.1624 4.00026 4.58247 23.5802 4.58247 47.6042C4.58247 55.3045 6.60647 62.7845 10.3904 69.3845L4.23047 92.0005L27.3304 85.9285C33.7104 89.4045 40.8824 91.2525 48.1864 91.2525C72.2106 91.2525 91.7906 71.6725 91.7906 47.6482C91.7906 35.9882 87.2586 25.0322 79.0306 16.8042ZM48.1864 83.8605C41.6744 83.8605 35.2944 82.1005 29.7064 78.8005L28.3864 78.0085L14.6584 81.6165L18.3104 68.2405L17.4304 66.8765C13.8126 61.0988 11.8915 54.4211 11.8864 47.6042C11.8864 27.6282 28.1664 11.3482 48.1424 11.3482C57.8226 11.3482 66.9306 15.1322 73.7506 21.9962C77.1273 25.3577 79.8035 29.356 81.6237 33.7593C83.4443 38.1627 84.3722 42.8835 84.3546 47.6482C84.4426 67.6245 68.1626 83.8605 48.1864 83.8605ZM68.0746 56.7565C66.9746 56.2285 61.6066 53.5885 60.6386 53.1925C59.6266 52.8404 58.9226 52.6644 58.1746 53.7205C57.4266 54.8205 55.3586 57.2845 54.7426 57.9885C54.1266 58.7365 53.4666 58.8245 52.3664 58.2525C51.2664 57.7245 47.7464 56.5365 43.6104 52.8404C40.3544 49.9364 38.1984 46.3723 37.5384 45.2722C36.9224 44.1723 37.4504 43.6002 38.0224 43.0282C38.5064 42.5442 39.1224 41.7522 39.6504 41.1362C40.1784 40.5202 40.3984 40.0362 40.7504 39.3322C41.1024 38.5842 40.9264 37.9682 40.6624 37.4402C40.3984 36.9122 38.1984 31.5442 37.3184 29.3442C36.4384 27.2322 35.5144 27.4962 34.8544 27.4522H32.7424C31.9944 27.4522 30.8504 27.7162 29.8384 28.8162C28.8704 29.9162 26.0544 32.5562 26.0544 37.9242C26.0544 43.2923 29.9704 48.4844 30.4984 49.1884C31.0264 49.9364 38.1984 60.9365 49.1104 65.6445C51.7064 66.7885 53.7306 67.4485 55.3146 67.9325C57.9106 68.7685 60.2866 68.6365 62.1786 68.3725C64.2906 68.0645 68.6466 65.7325 69.5266 63.1805C70.4506 60.6285 70.4506 58.4725 70.1426 57.9885C69.8346 57.5045 69.1746 57.2845 68.0746 56.7565Z" fill="white"/>
</g>
</svg>
