<svg width="117" height="105" viewBox="0 0 117 105" fill="none" xmlns="http://www.w3.org/2000/svg">
<path d="M81.9811 49.834C81.9811 66.4525 81.9886 82.8448 81.9583 99.2295C81.9583 100.323 82.292 100.685 83.407 100.685C90.4231 100.647 97.4392 100.64 104.455 100.685C105.684 100.692 106.078 100.315 106.071 99.0787C106.04 88.334 106.056 77.5968 106.086 66.8521C106.086 65.6607 105.601 65.3742 104.463 64.8464C98.7134 62.1395 92.5772 60.5108 86.661 58.3015C84.5903 57.5325 84.7799 56.1224 84.9999 54.8255C85.3033 53.031 86.6761 53.9584 87.6773 54.2525C93.4116 55.9264 98.9182 58.2337 104.577 60.0961C107.421 61.0311 110.106 62.4562 113.155 62.8784C114.877 63.1197 114.445 64.7258 114.392 65.8794C114.331 67.1085 113.481 67.4478 112.404 67.0406C110.007 66.1358 110.083 67.5609 110.091 69.2498C110.136 78.7655 110.227 88.2887 110.038 97.7969C109.985 100.421 110.819 101.062 113.223 100.828C114.831 100.677 116.803 100.361 116.986 102.954C117.069 104.161 116.826 105.02 115.332 104.87C114.862 104.824 114.384 104.87 113.914 104.87C76.9447 104.87 39.9757 104.87 2.99914 104.824C1.85381 104.824 -0.0879301 105.789 0.00308913 103.196C0.0789385 100.949 1.46698 100.7 3.27978 100.76C6.89021 100.881 6.8978 100.836 6.8978 97.1937C6.8978 87.8665 6.88263 78.5393 6.91296 69.2046C6.91296 67.7041 7.095 66.2866 4.77401 66.8898C3.57559 67.1989 2.1648 66.6334 2.0131 65.608C1.86898 64.6202 2.69574 63.6249 4.08378 63.1046C9.6132 61.0235 15.0592 58.754 20.7479 57.1102C23.1068 56.4316 25.3216 55.2478 27.6198 54.343C28.0749 54.162 28.4845 53.4758 29.0913 54.0037C29.9636 54.7577 31.784 53.4231 32.0798 55.3232C32.3604 57.1479 30.8586 57.5702 29.6374 58.2111C24.9348 60.6767 19.6405 61.5815 14.7861 63.7003C12.23 64.8162 10.7585 65.7663 10.8647 69.0538C11.1833 78.7505 11.024 88.4622 10.933 98.1664C10.9178 100.066 11.2819 100.775 13.3753 100.73C20.0046 100.587 26.649 100.602 33.2782 100.73C35.0986 100.76 35.4399 100.21 35.4323 98.5207C35.3641 83.7269 35.3944 68.9332 35.3944 54.1394C35.3944 53.2119 35.2124 52.3599 34.9241 51.4551C34.6283 50.5503 34.689 50.3618 33.6271 50.7388C31.8295 51.3797 30.7372 50.588 30.7448 48.5446C30.7524 45.6265 30.6538 42.701 30.7069 39.7829C30.7524 36.8724 33.4223 35.7565 35.0834 34.0675C37.9126 31.1796 41.1893 28.7366 44.155 25.9769C47.5682 22.795 50.8904 19.515 54.7663 16.8609C56.3212 15.7977 57.4438 10.6176 56.5109 8.99647C55.942 8.01625 54.9787 8.52898 54.205 8.49128C53.0445 8.4385 51.8916 8.42342 51.4896 7.10389C51.0194 5.55816 52.3619 5.12083 53.3328 4.78153C55.1683 4.14815 56.2757 3.06237 56.5109 1.13963C56.7081 -0.489043 58.0127 0.17449 58.8849 0.0312273C60.0075 -0.157277 60.4474 0.528878 60.364 1.51664C60.1971 3.59772 60.3109 5.20377 63.2159 4.81169C64.4902 4.63826 65.006 5.66372 64.9908 7.05865C64.9681 8.78535 63.8303 8.53652 62.867 8.4385C61.0618 8.25 60.546 8.82305 60.4095 10.7156C60.1364 14.3575 61.9265 16.5366 64.4978 18.761C71.7187 25.0268 78.7044 31.5566 85.8797 37.8753C86.5851 38.4936 86.3803 38.9158 86.3803 39.5039C86.3652 41.9545 86.3424 44.405 86.3576 46.8556C86.3803 50.5653 85.9328 50.9122 81.9886 49.8415L81.9811 49.834ZM39.2779 73.1481C39.2779 80.4922 39.2779 87.8288 39.2779 95.1729C39.2779 100.79 39.2779 100.7 44.8604 100.715C46.6428 100.715 47.0448 100.202 47.0373 98.5057C47.0145 92.9561 46.5442 87.3915 47.3558 81.8721C48.175 76.315 53.492 72.3262 59.4462 72.6882C64.9984 73.0275 69.6404 77.6043 69.8148 83.0936C69.9438 87.1351 69.8755 91.1842 69.8831 95.2332C69.8907 100.798 69.8831 100.692 75.5415 100.745C77.5211 100.76 77.8169 100.066 77.8169 98.3322C77.7866 81.857 77.8473 65.3893 77.87 48.9141C77.87 46.8782 77.4073 45.0686 75.7614 43.6133C70.3913 38.8555 65.0591 34.0524 59.7875 29.1965C58.756 28.2465 58.263 28.4048 57.3073 29.287C51.8992 34.2786 46.4229 39.2023 40.9162 44.0808C39.6723 45.1892 39.2324 46.3956 39.2475 48.0243C39.3082 56.4014 39.2779 64.7785 39.2779 73.1556V73.1481ZM35.0986 43.7867C35.9102 43.1157 36.5094 42.6708 37.0631 42.1656C43.3586 36.4577 49.6844 30.78 55.9268 25.0193C57.6713 23.4132 59.0139 23.0362 60.9632 24.8836C66.1665 29.8224 71.5214 34.6028 76.9067 39.3531C78.6285 40.8687 80.1303 42.7236 82.5196 43.8018C82.8533 41.6529 82.3603 40.0921 80.8888 38.7801C74.0624 32.6726 67.2056 26.5952 60.4626 20.3972C59.0518 19.1003 58.2023 19.0098 56.7763 20.3293C49.9878 26.6178 43.0931 32.8007 36.2439 39.0214C34.909 40.2353 34.1125 41.6152 35.0986 43.7943V43.7867ZM60.5005 88.7336C60.5005 92.1116 60.6219 95.4896 60.455 98.86C60.3488 101.077 61.7369 100.783 62.996 100.647C64.1489 100.519 66.0072 101.605 65.9617 99.0108C65.8707 93.6649 65.9693 88.3189 65.9086 82.9805C65.8782 80.6204 64.4902 78.9767 62.5788 77.7627C61.2894 76.9408 60.3868 76.8126 60.4702 78.9013C60.5915 82.1812 60.5005 85.4612 60.5005 88.7411V88.7336ZM56.4274 89.0201C56.4274 86.5771 56.5488 84.1266 56.3819 81.6911C56.2833 80.2132 57.2997 77.7476 55.7448 77.4535C53.9244 77.1142 52.7942 79.3612 51.8385 81.02C51.3 81.955 51.0345 82.9503 51.0269 83.9682C50.9814 88.9523 51.0952 93.9288 50.9511 98.9128C50.8904 101.205 52.3846 100.692 53.5755 100.632C54.7815 100.579 56.5639 101.439 56.4578 98.8902C56.3136 95.6027 56.4198 92.3077 56.4198 89.0201H56.4274Z" fill="#FFFFF5"/>
<path d="M16.5989 81.0954C16.5989 78.562 16.5686 76.0285 16.5989 73.495C16.652 69.657 19.3598 68.2545 22.7882 67.8625C25.7767 67.5232 29.2203 69.9209 29.6071 72.8842C30.3125 78.298 29.8346 83.7496 29.7436 89.186C29.7209 90.3849 28.9927 90.498 28.0749 90.498C24.8665 90.4905 21.6505 90.4678 18.4421 90.498C16.963 90.5131 16.4548 89.7365 16.4548 88.4094C16.4548 85.9664 16.4548 83.5234 16.4548 81.0879H16.5913L16.5989 81.0954ZM25.8222 79.9795H25.7843C25.7843 78.381 25.7236 76.79 25.7995 75.1915C25.8905 73.2612 25.0106 71.9191 23.1296 71.9492C21.294 71.9794 20.399 73.3592 20.4141 75.2518C20.4369 78.2528 20.5128 81.2613 20.3535 84.2623C20.2473 86.1398 20.9148 86.547 22.72 86.6148C25.0485 86.7053 26.2925 86.2831 25.8525 83.6365C25.6553 82.4451 25.8222 81.201 25.8222 79.9795Z" fill="#FFFFF5"/>
<path d="M87.1843 81.0653C87.1843 78.8032 87.1236 76.5412 87.1995 74.2867C87.3057 70.9389 89.5963 67.9529 92.2511 67.8248C96.5062 67.6212 99.8284 69.9285 100.314 73.4799C101.004 78.4639 100.45 83.4253 100.594 88.3868C100.632 89.842 99.7677 90.5583 98.2204 90.5282C95.285 90.4678 92.3421 90.498 89.4067 90.5131C87.7759 90.5131 87.0402 89.8797 87.1464 88.1304C87.2829 85.7854 87.1843 83.4253 87.1843 81.0653ZM91.1664 79.7608C91.1664 81.4498 91.3029 83.1539 91.1285 84.8278C90.9464 86.5997 91.978 86.7807 93.1688 86.4942C94.3597 86.2077 96.5062 87.7232 96.5593 85.0012C96.62 81.6233 96.5745 78.2453 96.5593 74.8597C96.5593 73.0727 95.6112 71.8738 93.8515 71.9266C92.1221 71.9718 91.2119 73.2311 91.174 74.9653C91.1361 76.5638 91.174 78.1548 91.1588 79.7533L91.1664 79.7608Z" fill="#FFFFF5"/>
<path d="M69.9514 51.3797C69.9514 52.8199 69.7921 54.3203 68.7984 55.3684C65.8783 58.4523 62.8291 61.4081 59.8331 64.4166C58.8167 65.4421 57.8686 64.8916 57.1101 64.1602C54.2657 61.4006 51.3759 58.671 48.7135 55.7304C46.5291 53.3175 46.5442 49.8189 48.3798 47.0893C50.2154 44.3523 53.6741 43.0478 56.7915 44.1638C58.0582 44.6162 59.0821 44.5181 60.3033 44.1411C65.2563 42.618 69.9362 46.177 69.9438 51.3797H69.9514ZM65.9693 51.4325C66.121 48.62 63.2235 46.7199 60.7584 48.1827C59.3173 49.0347 58.1568 49.5625 56.6701 48.4089C54.9028 47.029 53.3479 47.5493 52.013 49.1478C50.5946 50.8519 50.9738 52.4353 52.3619 53.9132C53.5831 55.2176 54.9939 56.3637 56.1013 57.7511C57.7169 59.7719 58.9987 60.3148 60.7357 57.7964C61.7217 56.3562 63.2614 55.2855 64.566 54.064C65.3397 53.3401 65.992 52.5635 65.9768 51.4249L65.9693 51.4325Z" fill="#FFFFF5"/>
<path d="M65.9693 51.4325C65.9844 52.571 65.3321 53.3477 64.5585 54.0715C63.2539 55.293 61.7217 56.3637 60.7281 57.8039C58.9987 60.3223 57.7093 59.7794 56.0937 57.7587C54.9863 56.3713 53.5755 55.2252 52.3543 53.9207C50.9663 52.4504 50.587 50.8594 52.0054 49.1553C53.3403 47.5493 54.8953 47.0366 56.6625 48.4164C58.1492 49.57 59.3097 49.0422 60.7508 48.1902C63.2159 46.7274 66.1134 48.6275 65.9617 51.44L65.9693 51.4325Z" fill="black"/>
</svg>
