<svg width="114" height="118" viewBox="0 0 114 118" fill="none" xmlns="http://www.w3.org/2000/svg">
<path d="M33.4524 14.4918C38.7515 12.8267 43.8707 11.3641 49.3422 10.9366C59.146 10.1715 68.3051 12.1442 77.007 16.3669C88.1524 21.7823 96.2847 30.2728 101.546 41.4935C102.161 42.806 102.671 43.6986 104.484 43.7286C110.818 43.8336 116.702 51.8591 112.684 58.8945C111.32 61.2797 109.963 63.7098 108.299 65.8849C106.126 68.7426 106.073 72.1703 105.324 75.3955C101.899 90.2239 93.8712 101.625 80.7921 109.575C75.418 112.845 69.7217 114.9 63.6281 116.206C38.2493 121.628 15.0742 108.368 5.01563 86.8562C1.49289 79.3108 -0.186038 71.1803 0.0163325 62.5697C0.308645 49.984 4.62588 39.2133 12.4134 29.6202C13.4177 28.3827 13.9049 27.6026 12.6982 26.1175C11.2067 24.2799 10.1274 22.1123 8.79321 20.1247C6.3048 16.4194 6.89693 8.50644 9.67015 4.85372C12.5108 1.11849 18.7243 -0.891636 23.4688 0.383442C29.1202 1.90604 32.9727 6.72883 33.31 12.6917C33.34 13.2317 33.3925 13.7643 33.4449 14.4843L33.4524 14.4918ZM38.2568 62.5773C38.5192 61.6247 38.6991 61.0022 38.8639 60.3796C40.288 55.0543 45.1899 51.7391 50.5265 52.4966C55.8481 53.2617 59.6032 57.852 59.5282 63.3423C59.4832 66.35 57.9917 68.7126 56.2978 70.9328C54.5589 73.2129 54.0192 75.0355 56.4702 77.3607C58.5388 79.3258 58.0742 81.1709 55.7731 83.001C54.8212 83.7586 53.8768 84.5386 52.865 85.2061C50.2492 86.9312 48.6602 89.2714 47.8957 92.3391C47.4534 94.1167 47.2286 96.0743 45.9694 97.5519C44.0132 99.862 42.3567 102.232 41.937 105.397C41.7196 107.055 40.2431 108.173 38.4667 108.128C36.5254 108.075 35.8584 106.56 35.5661 104.895C35.3262 103.522 35.2737 102.105 34.944 100.755C34.2469 97.8894 34.5167 94.7392 32.3281 92.3091C28.0709 87.5913 24.758 82.3635 23.7236 75.9281C23.4088 73.9629 22.2621 72.2603 20.4408 71.6453C15.8237 70.0927 12.8706 66.7025 10.0824 63.0348C8.89814 61.4747 7.25669 60.6421 5.29295 60.4246C3.83139 60.2596 3.05189 60.6346 3.04439 62.3297C3.0294 65.3374 3.14933 68.3301 3.58405 71.3003C7.65394 99.112 33.3625 118.291 61.1996 113.783C80.2899 110.7 93.3391 99.592 100.647 81.7184C100.864 81.1859 101.539 80.5108 100.939 79.9558C100.452 79.5058 99.7025 79.7458 99.0579 79.9333C96.4795 80.6909 94.6132 82.2135 93.6314 84.7786C92.612 87.4413 90.5209 89.0689 87.8676 89.6539C85.9863 90.0664 83.9551 89.8264 81.9913 89.8339C77.9889 89.8339 77.1045 89.1139 76.6398 85.0561C76.3699 82.7085 75.6054 80.7584 73.7466 79.2133C70.3738 76.4081 70.2014 71.4653 73.4168 68.4726C76.22 65.8549 79.1881 63.4173 82.0063 60.8146C84.2849 58.707 85.4316 56.1494 84.4498 52.9992C83.4754 49.864 81.4442 47.9289 78.1013 47.4863C77.3668 47.3888 76.6248 47.2313 75.9202 46.9913C72.4874 45.8062 71.4456 43.0761 73.2519 39.8884C76.0252 34.9981 79.1057 30.3028 82.9732 26.1925C84.2774 24.8049 84.2924 24.0024 82.576 22.8173C72.5549 15.9244 61.507 12.8942 49.4097 13.7943C43.541 14.2293 37.8371 15.4744 32.2757 18.4295C33.9546 19.7121 35.2513 20.9872 36.7803 21.8198C41.2324 24.2424 44.0806 28.1201 46.8388 32.1704C48.6677 34.8631 49.3572 37.6232 47.7907 40.5634C46.0668 43.8036 43.7058 46.1587 39.531 45.3862C37.9271 45.0862 36.0233 45.0412 35.1163 46.4588C32.5605 50.4565 29.0377 50.914 24.8929 49.894C24.3607 49.7665 23.7686 49.8265 23.214 49.864C19.339 50.119 17.1953 54.0042 19.0841 57.3644C19.6762 58.422 20.3733 59.4271 21.0179 60.4621C23.4238 64.2874 24.9604 64.8049 28.7829 62.5922C31.8859 60.7996 34.8765 60.2821 38.2643 62.5922L38.2568 62.5773ZM38.5417 104.392C39.591 102.18 40.2281 99.9295 41.8171 98.2044C43.5185 96.3593 44.5903 94.2592 45.1 91.8365C45.9844 87.6738 48.2629 84.5311 51.9206 82.3485C52.6401 81.9209 53.2248 81.2684 53.9368 80.8409C54.9112 80.2558 54.8587 79.7383 54.2141 78.8682C53.0374 77.2782 52.2879 77.0081 51.1336 79.0183C49.3497 82.131 48.7651 82.0559 46.8463 79.0483C44.5828 75.508 42.1918 72.0353 40.0782 68.4051C37.8971 64.6624 33.5349 62.4272 29.6299 65.3374C27.4188 66.98 24.7655 67.145 22.2021 65.7949C19.3539 64.3024 18.1622 61.4297 16.6857 58.8795C13.8525 53.9817 16.4533 48.3114 21.9698 47.1113C23.5288 46.7738 25.1103 46.9988 26.6992 47.2913C28.4007 47.6063 30.3044 48.1014 31.5112 46.1888C33.5124 43.0161 36.5329 41.9735 39.9732 42.5735C42.9189 43.0836 43.9607 41.1334 45.2199 39.3183C46.4866 37.4957 45.6621 35.9056 44.7177 34.1505C41.847 28.8402 37.155 25.5175 32.4556 22.1048C30.8891 20.9647 30.3719 21.4297 29.5474 22.8023C27.6211 26.005 25.4625 29.0727 23.5513 32.2904C20.0885 38.1333 19.4814 36.7457 17.0379 32.2829C16.0111 30.4078 15.2691 30.9028 14.2947 32.1554C8.91313 39.0558 5.218 46.7138 3.76393 55.4068C3.53908 56.7494 3.63651 57.4469 5.27796 57.5519C8.78572 57.7695 11.1617 59.7571 13.2828 62.5322C15.3365 65.2249 17.6675 67.7976 21.1903 68.9226C24.1884 69.8827 25.8673 72.3053 26.5119 75.313C27.5687 80.2408 29.3975 84.7111 32.9352 88.4313C36.0083 91.664 37.5298 95.5943 37.7547 100.072C37.8296 101.52 38.2643 102.952 38.5342 104.392H38.5417ZM83.7977 86.9537C87.5753 87.6063 90.0337 86.1287 91.5627 82.5735C93.0093 79.2208 95.9174 77.6082 99.4776 77.0306C102.993 76.4531 103.907 74.0905 101.914 71.0528C99.6575 67.6101 97.4689 64.1298 95.2353 60.6796C91.4053 54.7618 92.5596 48.7989 98.4358 44.8912C99.4626 44.2086 99.5975 43.7886 99.1179 42.731C96.3896 36.7757 92.5221 31.6604 87.8226 27.1451C86.9981 26.35 86.5259 26.2525 85.664 27.2951C82.2612 31.4128 78.9333 35.5606 76.3774 40.2859C74.721 43.3536 74.8934 43.7811 78.3262 44.4336C82.7409 45.2737 85.8888 47.7338 87.148 52.0766C88.4072 56.4269 87.0581 60.1771 83.6927 63.1848C80.972 65.6149 78.1988 67.9926 75.5005 70.4527C73.117 72.6279 73.1545 75.0505 75.5979 77.0456C77.5692 78.6582 79.1357 80.7734 79.1956 83.166C79.2931 86.6087 80.5822 87.7638 83.7977 86.9762V86.9537ZM20.2684 32.1929C23.5662 26.8751 26.8566 22.1198 29.5474 17.0495C31.736 12.9167 30.1171 7.68139 26.5194 4.98122C22.5319 1.98104 17.3977 2.11605 13.6051 5.31124C10.1498 8.22142 8.89814 13.4342 11.1767 17.5145C13.8899 22.3748 17.0229 27.0026 20.2684 32.2004V32.1929ZM103.488 68.2251C105.909 64.4449 108.202 61.1522 110.173 57.687C112.062 54.3643 111.095 50.254 108.262 48.1014C105.219 45.7987 101.314 45.8737 98.5107 48.2964C95.7225 50.7115 95.0105 54.5743 96.9667 57.897C98.9529 61.2647 101.134 64.5199 103.488 68.2251ZM49.0349 77.1356C51.4109 73.3704 53.682 70.0627 55.6457 66.575C57.497 63.2823 56.5601 59.202 53.7644 56.9444C51.1186 54.8068 46.8388 54.8368 44.1855 57.0194C41.4198 59.2995 40.5504 63.4098 42.4392 66.68C44.4254 70.1302 46.6814 73.4304 49.0349 77.1281V77.1356Z" fill="#FFFFF5"/>
<path d="M18.3946 7.58388C19.5638 8.12392 20.883 7.8314 22.2546 7.66639C24.0759 7.44887 25.485 8.45394 26.362 10.0215C27.3138 11.7316 27.1415 13.5017 25.8898 14.9718C24.5631 16.5244 23.0341 17.912 21.6025 19.3671C20.7181 20.2672 19.8261 20.2747 18.9417 19.3671C17.4352 17.8445 15.8387 16.3969 14.4671 14.7618C13.2978 13.3667 13.2079 11.6716 14.1223 10.059C15.0142 8.49894 16.3933 7.65139 18.3946 7.57638V7.58388ZM20.3058 16.3369C21.1528 16.3369 24.4207 12.6467 24.1209 11.8891C22.8692 8.70895 20.0435 12.4142 18.2746 10.6141C17.75 10.074 16.7381 10.9516 16.5133 11.8816C16.3034 12.7817 19.3689 16.3444 20.3058 16.3444V16.3369Z" fill="#FFFFF5"/>
<path d="M98.0161 53.2467C98.0535 51.1165 99.9348 49.2939 102.026 49.3614C106.995 49.5264 109.004 50.629 109.064 53.2467C109.101 54.7243 104.792 59.8621 103.51 59.8771C102.153 59.8921 97.9861 54.8593 98.0161 53.2467ZM106.096 53.5392C106.088 52.7816 105.474 52.1666 105.107 52.5116C103.84 53.7417 101.651 51.154 101.067 53.3892C100.827 54.3117 102.198 55.7893 103.308 55.8943C104.672 56.0293 105.294 54.4543 106.096 53.5317V53.5392Z" fill="#FFFFF5"/>
<path d="M54.5589 62.1122C54.5514 63.5373 50.4965 68.5251 49.2673 68.7501C49.1773 68.7651 49.0874 68.7801 48.9975 68.7801C47.8207 68.7576 43.4585 63.5448 43.466 62.1797C43.4885 59.6371 45.2574 58.587 48.7801 58.587C50.1442 58.587 51.5158 58.0245 52.7526 58.9695C53.8244 59.7871 54.6938 60.7396 54.5589 62.1122ZM51.6733 62.0672C51.3435 61.7972 51.0062 61.3547 50.8338 61.4147C49.5671 61.8197 48.3454 61.6697 47.0862 61.3922C46.7189 61.3097 46.3816 61.7672 46.5016 62.1497C46.9213 63.4323 47.8357 64.7449 49.0274 64.7524C50.2342 64.7524 51.0212 63.3498 51.6807 62.0747L51.6733 62.0672Z" fill="#FFFFF5"/>
<path d="M20.3058 16.3369C19.3689 16.3369 16.3034 12.7742 16.5133 11.8741C16.7306 10.9441 17.75 10.074 18.2746 10.6066C20.0435 12.4067 22.8692 8.70895 24.1209 11.8816C24.4207 12.6392 21.1528 16.3294 20.3058 16.3294V16.3369Z" fill="black"/>
<path d="M106.096 53.5392C105.286 54.4543 104.664 56.0293 103.308 55.9018C102.198 55.7968 100.827 54.3117 101.067 53.3967C101.651 51.1616 103.84 53.7492 105.107 52.5191C105.466 52.1666 106.081 52.7892 106.096 53.5467L106.096 53.5392Z" fill="black"/>
<path d="M51.6732 62.0597C51.0137 63.3348 50.2267 64.7449 49.0199 64.7374C47.8282 64.7374 46.9063 63.4173 46.4941 62.1347C46.3741 61.7522 46.7114 61.2947 47.0787 61.3772C48.3379 61.6547 49.5596 61.8122 50.8263 61.3997C50.9987 61.3397 51.336 61.7897 51.6657 62.0522L51.6732 62.0597Z" fill="black"/>
</svg>
