<svg width="117" height="115" viewBox="0 0 117 115" fill="none" xmlns="http://www.w3.org/2000/svg">
<path d="M16.2357 46.7961C12.8138 44.8889 10.8993 41.8338 10.0849 38.4767C9.62578 36.5608 8.71615 35.9394 7.31273 35.3612C1.34386 32.9103 0.321617 30.6146 2.626 24.3751C3.20643 22.8044 2.35744 21.3114 1.95028 20.1722C-1.22908 11.2659 6.32514 -0.384743 17.5265 0.417858C23.53 0.849364 29.6115 -0.358853 35.5717 1.22046C36.49 1.4621 37.5902 1.67786 38.214 2.29059C40.7869 4.83648 43.3772 5.06086 46.4959 3.21402C53.2878 -0.807619 60.1229 -0.065429 66.8715 3.46429C67.0621 3.56785 67.2613 3.64552 67.4519 3.74908C72.5805 6.50209 76.7474 6.9336 82.5863 3.32621C93.7271 -3.552 111.868 0.124436 115.896 15.4084C117.213 20.3966 117.603 25.5142 115.653 30.5197C115.619 30.6146 115.471 30.7268 115.489 30.7872C117.178 35.2749 115.272 39.9265 115.991 44.302C116.641 48.2287 116.814 51.629 114.536 54.8912C112.379 57.9808 111.382 61.1307 112.682 64.9021C113.938 68.544 111.538 72.7555 107.501 73.9465C105.388 74.5678 104.079 75.543 103.291 77.6315C102.468 79.8149 100.909 81.541 98.9596 82.9649C98.1452 83.5604 96.378 83.7417 96.9324 85.3986C97.3569 86.6759 98.0586 87.5303 99.6699 88.0826C108.03 90.9651 113.418 96.8163 115.853 105.308C116.061 106.025 116.26 106.75 116.338 107.483C116.823 112.443 114.527 114.922 109.451 114.922C74.6076 114.922 39.756 114.879 4.91305 115C1.82899 115.009 1.19659 114.094 1.28322 111.263C1.43049 106.284 2.7906 101.753 5.67541 97.7829C7.17412 95.7289 7.26942 94.1927 5.58011 92.3372C4.21134 90.8356 3.95145 88.0826 0.789424 88.8075C-0.14619 89.0233 0.00974598 87.7288 0.00974598 87.0297C0.00974598 77.433 0.0357353 67.845 0.0703876 58.2483C0.0790507 54.8653 2.0629 52.7336 5.17295 52.4316C9.65177 52.0001 13.0217 49.8425 16.253 46.7961H16.2357ZM48.0986 69.5796C48.0986 67.4221 48.1332 65.2646 48.0986 63.107C47.9773 56.6086 44.0962 51.3097 37.9714 49.1521C34.2809 47.8576 30.4778 48.4704 26.7267 48.4531C17.3099 48.3927 11.2111 54.615 11.0725 63.9787C10.9599 71.6681 12.1554 79.5129 8.07508 86.7622C7.04418 88.6004 8.93273 90.1711 10.0676 91.526C11.3497 93.0622 12.0861 91.1981 12.9437 90.732C14.9362 89.6619 16.8941 88.5745 19.0772 87.8755C21.8147 87.0038 22.5598 83.431 20.498 81.4374C14.6937 75.8365 14.044 68.8029 14.9796 61.3983C15.2828 58.9991 17.0154 57.3853 19.1465 56.3755C20.0301 55.9527 21.4596 55.2277 21.988 56.4014C22.4558 57.4629 22.915 59.1803 20.8531 59.7844C19.467 60.1901 18.6874 61.2257 18.6527 62.6583C18.5834 65.6702 18.3235 68.708 18.9819 71.6854C20.3247 77.7006 25.3406 81.8948 30.5558 81.4374C34.896 81.0577 39.2362 76.4319 40.3018 71.0467C40.9429 67.845 40.7783 64.6087 40.8216 61.381C40.8389 60.2505 40.7263 59.3357 42.4242 59.327C44.0876 59.327 44.4254 59.957 44.3474 61.4242C44.2262 63.6853 44.2435 65.955 44.2521 68.2161C44.2695 73.187 42.5715 77.4676 39.0716 81.0145C36.3081 83.8279 37.0704 86.6932 40.8302 88.1171C42.7361 88.8334 44.4601 89.9985 46.34 90.7925C47.1803 91.1463 47.7607 93.0622 48.8869 91.7245C50.1171 90.266 52.2742 88.7558 51.044 86.486C48.1332 81.1354 47.8473 75.4222 48.0899 69.571L48.0986 69.5796ZM49.3807 111.254C53.7556 111.254 54.1281 110.97 53.1925 107.043C51.5898 100.277 47.6741 95.2715 41.272 92.2768C39.7473 91.5692 39.0196 91.4656 38.8984 93.5714C38.6471 98.1798 36.5073 100.087 31.9332 100.148C30.4172 100.165 28.9098 100.165 27.3938 100.148C22.733 100.096 20.5759 98.2834 20.3507 93.6835C20.2294 91.2499 19.2331 91.6382 17.7604 92.3372C11.497 95.306 7.58995 100.208 6.03926 106.896C5.03434 111.246 5.15562 111.099 9.62578 111.315C12.424 111.453 13.3249 110.46 12.9351 107.846C12.8225 107.112 12.9524 106.344 12.9264 105.584C12.8918 104.488 13.3942 104.022 14.4858 104.057C15.4907 104.083 16.5043 104.005 16.5043 105.455C16.5043 106.422 16.6256 107.405 16.5043 108.355C16.2357 110.573 17.05 111.358 19.3631 111.289C25.0894 111.134 30.8157 111.237 36.542 111.237C42.1643 111.237 42.2163 111.237 42.6841 105.861C42.8054 104.445 43.2992 104.022 44.6507 104.031C46.0627 104.031 46.2187 104.825 46.1754 105.904C46.1494 106.551 46.262 107.207 46.158 107.837C45.6642 110.754 46.8944 111.815 49.3634 111.246L49.3807 111.254ZM108.844 111.254C111.853 111.254 113.092 109.934 112.561 107.293C111.651 102.823 109.477 99.0515 106.15 95.9446C102.572 92.6134 102.096 92.6652 100.597 97.3255C99.7306 100.018 98.6737 100.588 96.0054 99.3018C92.1937 97.4635 88.4772 95.8066 83.8598 98.2748C79.0864 100.821 78.8352 100.311 76.4442 95.2456C76.037 94.3912 76.0284 93.0104 74.2784 93.8389C69.8949 95.9187 64.4891 105.101 65.0436 109.744C65.1215 110.391 65.1129 110.918 65.9359 111.211C69.6783 112.558 72.1473 110.909 72.1993 106.948C72.1993 106.413 72.2166 105.869 72.2166 105.334C72.2166 104.333 72.8144 104.022 73.6893 104.083C74.495 104.135 75.5606 103.729 75.8638 104.894C76.0544 105.602 76.089 106.413 75.9591 107.138C75.3613 110.59 76.8514 111.505 80.1866 111.324C85.4711 111.047 90.7903 111.246 96.0921 111.246C101.567 111.246 101.61 111.246 101.974 105.947C102.061 104.627 102.355 103.979 103.828 104.031C105.119 104.074 105.552 104.635 105.483 105.817C105.457 106.353 105.544 106.905 105.474 107.431C105.084 110.409 105.951 112.092 108.853 111.246L108.844 111.254ZM88.9104 81.4719C97.5475 81.4719 100.103 79.1936 100.917 70.7878C101.03 69.6055 101.273 68.4405 101.359 67.2668C101.931 59.4479 101.922 59.4047 94.0043 59.4651C90.6343 59.491 87.1171 59.7327 84.4922 57.3162C82.6296 55.5988 81.2609 55.9786 79.3896 56.9969C77.2585 58.1534 75.5952 59.3443 76.0024 62.1577C76.3662 64.7122 76.5135 67.3013 76.6954 69.8731C77.3192 78.9002 80.022 81.4806 88.919 81.4806L88.9104 81.4719ZM81.2262 84.5184C77.4664 82.1623 74.4517 79.4697 73.4987 75.1892C73.1782 73.7739 72.026 74.2485 71.1597 74.0845C67.0967 73.3251 64.2725 70.2441 65.1475 66.352C65.8666 63.1502 64.6711 61.5622 62.2887 60.3109C61.0759 59.6723 60.1749 57.4543 58.5636 58.6453C56.2072 60.3885 52.2828 61.4414 52.1009 64.4706C51.7457 70.503 50.9487 76.6995 53.3051 82.6543C54.0934 84.6478 55.0897 85.4936 57.3248 85.4418C63.9087 85.2951 70.5013 85.4159 77.0939 85.3641C78.3241 85.3555 79.6755 85.8215 81.2262 84.5184ZM34.87 27.4474C35.1992 22.0622 35.1472 21.9586 30.9283 20.0945C29.2563 19.3523 27.567 18.6533 25.8777 17.9543C23.7206 17.0654 14.1739 20.6555 13.2296 22.744C13.0217 23.21 12.9524 23.8055 12.9957 24.3233C13.3682 28.6038 13.5588 32.9189 14.2432 37.1563C14.9969 41.8252 18.3755 44.4228 23.0622 44.5264C29.3603 44.6558 32.505 42.5932 33.8478 37.5187C34.7921 33.9372 34.4022 30.2349 34.8787 27.456L34.87 27.4474ZM83.4613 16.5303C86.5453 15.5378 87.4983 13.3803 87.1171 10.3166C86.9698 9.09113 86.4674 7.51182 88.9364 7.57223C91.4053 7.64127 90.7036 9.26373 90.695 10.4719C90.669 12.7676 90.5824 14.7956 93.164 16.1765C96.3953 17.9025 99.6786 18.9122 103.326 18.8604C106.41 18.8173 109.121 20.1981 109.052 23.2963C108.922 29.4668 109.425 35.8013 106.756 41.7043C106.488 42.2912 105.509 42.9989 106.488 43.6375C109.087 45.3463 110.663 47.9353 112.37 50.6883C113.332 48.7379 112.691 47.2449 112.413 45.6656C111.469 40.4098 112.673 35.1109 112.223 29.7775C112.032 27.5337 112.89 24.7893 112.985 22.2262C113.245 15.1495 110.611 9.40181 104.209 6.20867C97.7121 2.97237 90.8682 3.12772 84.2756 6.43305C83.1408 7.00264 82.1965 7.94332 81.1569 8.7114C80.3339 9.31551 80.074 9.96277 80.8797 10.7999C82.4304 12.4051 82.7596 14.5799 83.4613 16.5217V16.5303ZM109.208 56.272C109.225 51.2406 106.54 47.2104 102 45.5275C93.831 42.4983 85.3758 40.988 76.6434 41.1952C72.8663 41.2815 71.2723 43.9482 72.8837 47.383C73.0656 47.7713 73.2648 48.1597 73.4987 48.5221C74.5816 50.1446 74.5383 51.3097 72.5371 52.3108C70.8392 53.1651 69.1239 54.2439 68.5694 56.3324C68.1883 57.7564 68.6821 59.1199 69.8949 59.5946C70.8738 59.9829 72.2079 59.5946 72.7797 58.2224C73.8106 55.7628 75.8291 54.4338 78.2288 53.4758C79.5629 52.9494 80.7238 52.2072 79.9874 50.3517C79.4763 49.0658 80.0654 48.5653 81.4774 48.2719C83.1234 47.9267 83.47 48.5135 83.8598 49.8943C85.038 53.9936 87.3077 55.6765 91.6306 55.7973C94.4461 55.875 97.2616 55.8319 100.077 55.8232C101.792 55.8232 103.456 56.2116 104.296 57.7477C105.171 59.3357 106.644 60.0261 107.978 59.6636C109.511 59.2494 109.026 57.3507 109.217 56.2806L109.208 56.272ZM38.8031 9.92825C39.2449 8.38346 39.1842 7.30469 37.8501 6.36401C35.8143 4.94004 33.6052 4.23237 31.1882 4.19785C26.4408 4.12881 21.6761 3.99936 16.9374 4.21511C8.81145 4.57757 4.01209 11.4126 6.01327 19.3264C6.40311 20.8712 7.00952 20.8971 8.46492 20.8108C10.8906 20.6555 11.6356 18.4289 13.4375 17.5314C19.8569 14.3382 26.2069 11.8269 32.8862 16.8669C33.2154 17.1171 33.6832 17.1948 34.073 17.376C34.6101 17.6177 35.2859 17.6867 35.4678 17.0999C36.2994 14.485 41.1074 13.7082 38.8117 9.92825H38.8031ZM98.6217 40.1596C102.338 41.7906 103.915 41.0312 104.426 37.07C104.937 33.126 105.05 29.1216 105.396 25.1518C105.569 23.1496 104.686 22.4419 102.754 22.511C98.0586 22.6749 93.831 21.2251 90.0019 18.5584C89.5081 18.2132 89.1876 17.6436 88.3819 17.8766C86.2508 18.5066 83.262 21.9673 83.3747 24.1593C83.5826 28.1292 84.0591 32.0904 84.3363 36.0602C84.4402 37.536 85.4451 37.6913 86.528 37.9071C87.9314 38.1919 87.325 37.2081 87.6456 36.6039C88.2607 35.4302 89.5774 34.0494 91.1888 35.6201C93.5105 37.8812 95.6936 37.8812 97.868 35.4734C99.1155 34.084 100.068 35.4648 100.926 35.9567C102.174 36.673 100.978 37.4411 100.571 38.0365C100.042 38.8046 99.3061 39.426 98.6217 40.1423V40.1596ZM57.1428 4.16333C51.8324 4.28415 47.9859 6.92497 43.8017 8.54743C42.5282 9.03935 42.303 10.4719 43.2386 11.1969C46.4786 13.7169 44.0269 14.6403 42.147 15.8399C41.2461 16.4181 40.1892 16.9359 39.5827 17.7644C38.7338 18.9208 38.1533 20.6641 40.2671 20.9489C41.4107 21.0956 43.0913 21.1043 44.1309 19.8443C45.413 18.2908 47.137 17.5918 49.0602 16.9877C53.6256 15.5551 54.6132 13.9758 53.9895 10.3598C53.8335 9.47085 52.5167 7.92606 54.7518 7.66716C56.2852 7.49456 57.3941 7.46866 57.7319 9.77291C58.4423 14.7352 62.5399 17.4882 67.6858 17.074C70.3454 16.8582 72.5718 17.6608 74.2871 19.7493C75.4653 21.1906 77.3711 21.2596 78.6533 20.7763C79.8834 20.3017 79.8315 18.4117 79.6062 17.0222C79.1817 14.321 77.8823 12.1117 75.3007 10.9984C70.458 8.90989 65.5807 6.89908 60.6774 4.96593C59.3952 4.45675 57.9658 4.34456 57.1602 4.17196L57.1428 4.16333ZM58.6502 44.5264C67.7898 44.5264 71.7228 40.8413 71.5062 33.2382C71.4629 31.8229 71.2723 31.3741 69.7303 31.6244C66.2477 32.194 63.6748 30.7182 61.8729 27.7408C60.6254 25.6868 57.8792 25.6437 56.597 27.7408C54.7605 30.7182 52.2309 32.0904 48.7223 31.6761C48.0899 31.5985 46.9117 31.0116 47.0677 32.2889C47.4142 35.016 46.9897 37.8553 48.7396 40.3839C51.3732 44.2071 55.081 44.8889 58.6502 44.5178V44.5264ZM73.9925 88.9284C69.8083 88.9284 65.598 89.2131 61.4397 88.8507C57.1775 88.471 53.9375 89.3167 52.3261 93.6231C52.2915 93.7181 52.1962 93.7957 52.1182 93.8734C51.174 94.7192 51.4425 95.4614 52.1529 96.3503C55.107 100.044 56.8223 104.273 57.2295 108.985C57.3507 110.348 57.7059 111.125 59.3432 111.116C60.8593 111.116 61.0585 110.417 61.1972 109.183C62.1761 100.484 66.6116 94.0029 73.9839 88.9284H73.9925ZM29.6895 96.2985C33.4493 96.2985 35.2599 94.3912 35.1213 90.5767C35.0953 89.8345 34.9913 89.0837 34.8354 88.3501C34.3329 86.02 33.6399 83.9833 30.4692 85.2433C29.8194 85.5022 28.8838 85.4763 28.2428 85.2088C25.7478 84.1818 25.0461 85.5971 24.6649 87.5993C24.483 88.54 24.1538 89.4634 24.1105 90.4041C23.8159 96.2898 23.8332 96.2898 29.6982 96.2898L29.6895 96.2985ZM34.3936 44.5091C39.011 45.2772 42.996 46.8824 46.4006 49.9547C48.1679 51.5513 48.8696 49.2212 49.9091 48.3927C50.7841 47.7023 50.7668 47.0464 49.7532 46.425C46.158 44.1898 44.0962 40.9708 43.5591 36.7679C43.2992 34.7398 41.5839 35.4302 40.4837 35.4561C39.5394 35.4734 37.8501 34.7398 37.7722 36.7248C37.6595 39.6504 36.1695 41.9891 34.3936 44.5178V44.5091ZM3.87348 84.924C6.55904 82.1796 7.11348 78.9606 7.2261 75.5689C7.42535 69.7781 6.51573 63.9183 8.13572 58.1965C8.3523 57.4284 9.06267 56.4532 8.0231 55.9009C7.26942 55.5039 6.32514 55.8232 5.5368 56.2634C4.50589 56.8329 3.89947 57.7305 3.89081 58.8783C3.86482 67.5602 3.87348 76.2421 3.87348 84.924ZM88.9364 85.2951C86.9092 85.5626 84.2496 84.2508 83.9811 87.6942C83.9291 88.3847 88.0614 91.9489 88.8411 91.9575C89.8373 91.9748 93.961 88.3415 93.8397 87.4871C93.3545 84.0437 90.6083 85.7438 88.9364 85.2951ZM68.4655 27.9048C70.8045 27.8616 72.0953 26.6016 72.1126 24.3405C72.13 22.019 70.5966 20.7504 68.4222 20.8022C66.4383 20.8453 65.0176 21.9414 65.0003 24.2284C64.9829 26.5757 66.1438 27.7753 68.4655 27.9048ZM53.5476 24.4441C53.6343 21.9845 52.1269 20.8195 49.9785 20.8022C47.7694 20.7763 46.2447 22.2607 46.3053 24.4355C46.3573 26.3514 47.5874 27.8616 49.8139 27.8875C52.1009 27.9134 53.4524 26.8174 53.5476 24.4441ZM59.4212 48.3582C58.0005 48.3582 56.701 48.3927 55.4102 48.3495C54.3013 48.315 53.7642 48.8587 53.8855 49.8857C54.0328 51.068 59.2913 53.6312 60.2269 52.9062C61.6823 51.7671 64.8443 51.6376 64.3505 49.4628C63.8221 47.1413 60.9979 49.0054 59.4212 48.3668V48.3582ZM106.341 63.2883C106.063 63.3832 105.561 63.4522 105.544 63.5731C105.31 65.6702 105.102 67.7759 104.98 69.8817C104.954 70.3391 105.5 70.4858 105.959 70.4167C107.935 70.1406 109.043 68.9496 109.165 67.0251C109.295 65.0833 108.255 63.8406 106.341 63.2796V63.2883ZM72.8057 68.3455C72.7537 64.8935 72.156 63.107 71.1597 63.4005C69.4271 63.901 68.3442 65.2991 68.5001 66.9733C68.6647 68.7339 69.765 70.2614 71.8094 70.3736C73.5854 70.4772 72.4678 68.9755 72.8057 68.3455ZM54.7085 18.2995C55.4968 19.5163 56.1466 20.7763 57.0389 21.8119C58.2084 23.1755 59.8197 22.511 61.2145 22.2348C61.8296 22.114 62.0808 20.8712 61.7689 20.5951C60.4348 19.3869 58.9881 18.2736 57.446 17.3415C56.3112 16.6511 55.5575 17.7558 54.7172 18.2995H54.7085ZM43.1953 28.25C41.7658 27.3697 44.2262 24.7634 41.5666 24.6771C39.9119 24.6253 38.881 26.3255 38.9677 28.1637C39.063 30.1141 40.1112 31.6848 42.0777 31.5208C44.2868 31.3396 42.303 29.4237 43.1953 28.2414V28.25ZM75.4999 29.6222C75.5779 30.2953 75.0234 31.1842 75.9764 31.5553C76.7214 31.8401 77.4838 31.4949 78.0642 31.003C79.381 29.8811 80.0567 28.552 79.3636 26.7742C78.8958 25.5747 77.9776 24.5908 76.834 24.6081C75.0581 24.6253 76.1843 26.2392 75.8984 27.1022C75.6385 27.9048 75.6212 28.7851 75.4999 29.6308V29.6222ZM9.76439 29.6481C8.88941 28.1551 10.3361 25.3589 8.1184 24.7548C6.68033 24.3664 5.48482 26.4463 5.58878 28.1723C5.7014 30.0019 6.68033 31.4259 8.74214 31.5985C10.2668 31.7279 9.55647 30.5025 9.76439 29.6481ZM85.4971 94.2618C83.1148 92.95 82.0752 90.266 79.7622 91.457C78.4714 92.1301 79.7622 94.0633 80.3946 94.7968C81.9539 96.5833 83.1841 94.0633 85.4971 94.2618ZM92.9387 94.0374C93.6751 94.3567 94.2122 94.7537 94.7753 94.7882C95.7109 94.8486 96.8978 96.6264 97.5995 94.5293C97.9373 93.5023 99.1935 92.3372 98.0933 91.4052C96.8111 90.3264 95.7975 91.8108 94.784 92.4667C94.1689 92.8637 93.6664 93.416 92.9474 94.0374H92.9387ZM55.3929 56.0821C53.6343 54.9688 52.1442 52.3021 50.1344 53.7175C49.0082 54.5114 50.9834 56.574 51.9103 57.532C53.487 59.1458 54.0674 56.5136 55.3929 56.0821ZM80.3339 34.4119C78.8092 34.6708 77.5357 35.6287 75.985 35.4993C75.4306 35.4561 74.9022 35.6892 74.8848 36.3623C74.8848 36.6298 75.0494 37.1218 75.162 37.1218C76.7561 37.2253 78.4454 37.5878 79.9268 37.2081C81.3215 36.8542 80.3166 35.4389 80.3253 34.4033L80.3339 34.4119Z" fill="#FFFFF5"/>
<path d="M49.3894 111.254C46.9204 111.833 45.6902 110.763 46.184 107.846C46.288 107.216 46.184 106.56 46.2013 105.912C46.2447 104.834 46.0887 104.048 44.6766 104.04C43.3252 104.04 42.8314 104.463 42.7101 105.869C42.2423 111.254 42.1903 111.246 36.568 111.246C30.8417 111.246 25.1067 111.142 19.3891 111.298C17.076 111.358 16.2617 110.581 16.5303 108.363C16.6429 107.405 16.5303 106.43 16.5303 105.464C16.5303 104.014 15.5167 104.1 14.5118 104.066C13.4202 104.031 12.9178 104.497 12.9524 105.593C12.9784 106.344 12.8484 107.112 12.9611 107.854C13.3509 110.469 12.4499 111.453 9.65177 111.324C5.19027 111.108 5.06033 111.254 6.06525 106.905C7.60728 100.217 11.5143 95.3146 17.7864 92.3459C19.2591 91.6468 20.2554 91.2585 20.3767 93.6922C20.6019 98.292 22.759 100.104 27.4198 100.156C28.9358 100.173 30.4432 100.173 31.9592 100.156C36.5333 100.096 38.6731 98.1885 38.9244 93.58C39.037 91.4742 39.7733 91.5778 41.298 92.2855C47.7087 95.2715 51.6244 100.286 53.2184 107.052C54.1454 110.978 53.7729 111.263 49.4067 111.263L49.3894 111.254Z" fill="black"/>
<path d="M108.844 111.263C105.942 112.109 105.076 110.426 105.466 107.449C105.535 106.922 105.448 106.37 105.474 105.835C105.544 104.652 105.11 104.091 103.82 104.048C102.347 103.997 102.061 104.652 101.966 105.964C101.602 111.263 101.558 111.263 96.0834 111.263C90.7816 111.263 85.4711 111.065 80.178 111.341C76.8427 111.513 75.3613 110.607 75.9504 107.155C76.0804 106.43 76.037 105.619 75.8551 104.911C75.5519 103.746 74.4863 104.152 73.6807 104.1C72.8144 104.04 72.2079 104.359 72.2079 105.351C72.2079 105.887 72.1993 106.43 72.1906 106.965C72.1386 110.927 69.661 112.575 65.9272 111.229C65.1042 110.935 65.1129 110.409 65.0349 109.761C64.4805 105.118 69.8862 95.936 74.2698 93.8562C76.0197 93.0277 76.0284 94.4085 76.4355 95.2629C78.8265 100.32 79.0864 100.829 83.8511 98.292C88.4686 95.8325 92.185 97.4894 95.9968 99.319C98.6564 100.596 99.7219 100.027 100.588 97.3427C102.087 92.6738 102.563 92.622 106.141 95.9619C109.477 99.0687 111.651 102.84 112.552 107.311C113.083 109.946 111.844 111.266 108.835 111.272L108.844 111.263Z" fill="black"/>
<path d="M81.2262 84.5184C79.6755 85.8215 78.3241 85.3555 77.0939 85.3641C70.5013 85.4159 63.9087 85.2951 57.3248 85.4418C55.0897 85.4936 54.0934 84.6392 53.3051 82.6543C50.9487 76.6995 51.7371 70.5031 52.1009 64.4706C52.2828 61.4414 56.2072 60.3885 58.5636 58.6453C60.1749 57.4543 61.0672 59.6723 62.2887 60.3109C64.6797 61.5622 65.8666 63.1502 65.1475 66.352C64.2725 70.2441 67.0967 73.3251 71.1597 74.0845C72.0347 74.2485 73.1869 73.7739 73.4987 75.1892C74.4603 79.4697 77.4664 82.1623 81.2262 84.5184Z" fill="black"/>
<path d="M3.87348 84.924C3.87348 76.2421 3.86482 67.5602 3.89081 58.8783C3.89081 57.7305 4.50589 56.8329 5.5368 56.2634C6.32514 55.8232 7.26942 55.5039 8.0231 55.9009C9.06268 56.4532 8.36096 57.4284 8.13572 58.1965C6.52439 63.9183 7.42535 69.7695 7.2261 75.5689C7.11348 78.9606 6.55904 82.1796 3.87348 84.924Z" fill="black"/>
<path d="M29.6722 78.1234C27.2292 77.761 25.124 76.9843 23.634 75.1633C23.1489 74.5765 21.7974 73.7048 23.1749 72.8677C24.0585 72.3326 25.0547 70.9087 26.4322 72.5743C28.2774 74.8008 30.6684 74.8958 32.5397 72.7987C34.177 70.9604 35.4418 72.255 36.2994 73.0576C37.365 74.0673 35.7277 74.7577 35.1819 75.4654C33.7785 77.2777 31.6647 77.7437 29.6722 78.1148V78.1234Z" fill="#FFFFF5"/>
<path d="M31.1969 61.4069C31.5954 62.9258 30.2613 62.9431 29.4816 63.2192C28.5286 63.5472 27.5584 63.5644 27.3418 62.1232C27.1339 60.7424 26.8913 59.3529 26.4582 58.0239C26.077 56.8416 25.8517 56.0476 27.5064 55.7542C28.7972 55.5298 29.7848 55.1932 30.0274 57.0573C30.2179 58.5331 30.7897 59.957 31.1969 61.3983V61.4069Z" fill="#FFFFF5"/>
<path d="M38.5951 61.5277C39.0803 63.0984 37.5729 62.8481 36.9145 63.1674C36.2475 63.4954 35.2165 63.7111 34.922 62.4166C34.5928 60.9754 34.229 59.5342 33.7785 58.1188C33.354 56.7725 33.4839 56.039 35.1213 55.6679C36.7153 55.3054 37.2091 55.8146 37.4689 57.2472C37.7375 58.697 38.214 60.1038 38.5951 61.5364V61.5277Z" fill="#FFFFF5"/>
<path d="M87.8188 78.0803C86.7446 78.0803 85.6704 78.0544 84.5962 78.0803C83.0801 78.1148 83.2621 77.0533 83.2534 76.0954C83.2534 75.1288 83.0975 74.1018 84.6048 74.1363C86.1035 74.1795 87.6109 74.0845 89.1183 74.1536C91.3967 74.2571 93.3892 74.0241 94.3248 71.461C94.9572 69.735 96.6379 70.3132 97.6255 70.7015C98.743 71.133 98.0499 72.324 97.6861 73.1956C96.196 76.7513 93.5105 78.0889 87.8275 78.0803H87.8188Z" fill="#FFFFF5"/>
<path d="M23.9545 41.1779C21.7454 40.7291 19.6316 40.2027 18.2196 38.3731C17.7171 37.7172 16.2964 36.9664 17.4572 36.0948C18.3062 35.4561 19.3977 33.9459 20.9484 35.7668C22.7937 37.933 25.1847 37.9934 27.0646 35.7755C28.5806 33.9977 29.6982 35.3957 30.5905 36.0775C31.6907 36.9146 30.4345 37.7431 29.8887 38.3817C28.3381 40.22 26.1636 40.8327 23.9459 41.1779H23.9545Z" fill="#FFFFF5"/>
<path d="M52.1442 36.4055C53.7382 35.1627 55.0464 34.3256 56.9349 36.4055C58.373 37.9934 60.686 37.7431 62.0981 35.9826C63.5882 34.1098 64.9483 35.18 65.8666 36.1034C66.8975 37.1304 65.4421 37.9675 64.7923 38.6407C60.9026 42.6795 55.4709 41.7043 52.1442 36.4055Z" fill="#FFFFF5"/>
</svg>
