<svg width="24" height="24" viewBox="0 0 24 24" fill="none" xmlns="http://www.w3.org/2000/svg">
<path fill-rule="evenodd" clip-rule="evenodd" d="M2.45605 7.08789C2.45605 4.50526 4.54969 2.41162 7.13232 2.41162H16.5603C19.1429 2.41162 21.2366 4.50526 21.2366 7.08789V16.5159C21.2366 19.0985 19.1429 21.1921 16.5603 21.1921H7.13232C4.54969 21.1921 2.45605 19.0985 2.45605 16.5159V7.08789ZM7.13232 4.22179C5.54942 4.22179 4.26622 5.50499 4.26622 7.08789V16.5159C4.26622 18.0988 5.54942 19.382 7.13232 19.382H16.5603C18.1432 19.382 19.4264 18.0988 19.4264 16.5159V7.08789C19.4264 5.50498 18.1432 4.22179 16.5603 4.22179H7.13232Z" fill="#FFFFF5"/>
<path fill-rule="evenodd" clip-rule="evenodd" d="M7.16992 11.8018C7.16992 9.21912 9.26355 7.12549 11.8462 7.12549C14.4288 7.12549 16.5225 9.21912 16.5225 11.8018C16.5225 14.3844 14.4288 16.478 11.8462 16.478C9.26355 16.478 7.16992 14.3844 7.16992 11.8018ZM11.8462 8.93566C10.2633 8.93566 8.98009 10.2188 8.98009 11.8018C8.98009 13.3847 10.2633 14.6679 11.8462 14.6679C13.4291 14.6679 14.7123 13.3847 14.7123 11.8018C14.7123 10.2188 13.4291 8.93566 11.8462 8.93566Z" fill="#FFFFF5"/>
<path d="M17.0317 7.55893C17.5524 7.55893 17.9745 7.13684 17.9745 6.61614C17.9745 6.09543 17.5524 5.67334 17.0317 5.67334C16.511 5.67334 16.0889 6.09543 16.0889 6.61614C16.0889 7.13684 16.511 7.55893 17.0317 7.55893Z" fill="#FFFFF5"/>
<path d="M0.532715 0.488281H23.1598V23.1154H0.532715V0.488281Z" fill="#C68787" fill-opacity="0.01"/>
</svg>
