<svg width="22" height="23" viewBox="0 0 22 23" fill="none" xmlns="http://www.w3.org/2000/svg">
<path d="M21.7778 11.5C21.7778 5.24079 16.9027 0.166687 10.8889 0.166687C4.87512 0.166687 0 5.24079 0 11.5C0 17.1568 3.98191 21.8455 9.1875 22.6957V14.7761H6.42275V11.5H9.1875V9.00315C9.1875 6.16273 10.8131 4.59378 13.3004 4.59378C14.4917 4.59378 15.7379 4.81513 15.7379 4.81513V7.60419H14.3648C13.0121 7.60419 12.5903 8.47781 12.5903 9.37408V11.5H15.6103L15.1275 14.7761H12.5903V22.6957C17.7959 21.8455 21.7778 17.1568 21.7778 11.5Z" fill="#100F0D"/>
<path d="M15.1276 14.776L15.6104 11.5H12.5904V9.37404C12.5904 8.47779 13.0122 7.60416 14.3649 7.60416H15.738V4.8151C15.738 4.8151 14.4918 4.59375 13.3005 4.59375C10.8132 4.59375 9.1876 6.1627 9.1876 9.00313V11.5H6.42285V14.776H9.1876V22.6957C9.75044 22.7875 10.3193 22.8335 10.889 22.8333C11.4678 22.8333 12.036 22.7862 12.5904 22.6957V14.776H15.1276Z" fill="#FFFFF5"/>
</svg>
