<svg width="21" height="22" viewBox="0 0 21 22" fill="none" xmlns="http://www.w3.org/2000/svg">
<path d="M20.0955 10.8021C20.0955 5.13692 15.6831 0.544434 10.2401 0.544434C4.79716 0.544434 0.384766 5.13692 0.384766 10.8021C0.384766 15.9219 3.98873 20.1656 8.70023 20.9351V13.7672H6.1979V10.8021H8.70023V8.54218C8.70023 5.97135 10.1716 4.55132 12.4227 4.55132C13.501 4.55132 14.6289 4.75166 14.6289 4.75166V7.276H13.3861C12.1618 7.276 11.78 8.0667 11.78 8.8779V10.8021H14.5134L14.0764 13.7672H11.78V20.9351C16.4915 20.1656 20.0955 15.9219 20.0955 10.8021Z" fill="#FFFFF5"/>
<path d="M14.0763 13.7671L14.5132 10.802H11.7799V8.87783C11.7799 8.06665 12.1617 7.27595 13.386 7.27595H14.6287V4.75161C14.6287 4.75161 13.5009 4.55127 12.4226 4.55127C10.1714 4.55127 8.70009 5.9713 8.70009 8.54213V10.802H6.19775V13.7671H8.70009V20.935C9.2095 21.0181 9.72436 21.0598 10.24 21.0596C10.7639 21.0596 11.2781 21.017 11.7799 20.935V13.7671H14.0763Z" fill="black"/>
</svg>
