<svg width="90" height="92" viewBox="0 0 90 92" fill="none" xmlns="http://www.w3.org/2000/svg">
<path d="M44.5929 2.69633C35.9916 2.69633 27.3836 2.69633 18.7824 2.69633C15.4428 2.69633 12.2054 3.09331 9.3974 5.18774C8.3887 5.94064 7.06648 6.02961 6.43264 4.99609C5.60796 3.67509 7.01196 3.14122 7.91843 2.59366C10.7673 0.889367 13.8888 0.0338002 17.1876 0.0338002C35.6713 -0.000422503 54.1551 -0.0209561 72.6388 0.0338002C81.3559 0.0611783 89.8072 7.39168 89.9162 18.1102C90.0389 29.8281 90.0184 41.5459 89.9094 53.2638C89.8617 58.1439 88.3418 62.7161 84.9681 66.2684C81.6422 69.7659 77.2666 71.3676 72.4139 71.3949C65.687 71.4292 58.9532 71.4908 52.2263 71.3539C50.2293 71.3128 48.6754 71.8535 47.469 73.3183C42.6777 79.1703 36.9254 84.1326 32.2022 90.0395C30.8459 91.7369 28.9512 92.2913 26.9133 91.8601C25.5162 91.5658 24.7324 90.5596 24.7528 88.9306C24.8005 84.1395 24.5961 79.3483 24.7733 74.564C24.8687 72.0931 24.3711 71.2101 21.6654 71.3196C18.0259 71.4634 14.3114 71.8809 10.7332 70.3477C4.30619 67.5962 0.346359 62.7708 0.182786 55.8578C-0.151176 41.7581 0.0601059 27.6447 0.135077 13.5381C0.148708 11.3136 1.69584 9.5614 2.77269 7.72706C3.20889 6.98785 4.28574 6.94678 5.02864 7.47381C5.76472 8.00084 6.01689 8.95223 5.37623 9.61615C3.22252 11.8612 2.75225 14.6811 2.7318 17.5421C2.65001 29.6022 2.60912 41.6623 2.72498 53.7223C2.80677 62.0316 8.59317 68.267 17.7396 68.705C19.7775 68.8009 21.8289 68.7187 23.8736 68.7256C27.2609 68.7324 27.5608 69.0199 27.5676 72.3395C27.5813 77.3018 27.5608 82.2641 27.5813 87.2195C27.5813 87.9382 27.2678 88.917 28.2492 89.2044C29.1352 89.4714 29.6736 88.6432 30.0689 88.0477C32.5294 84.3243 36.1552 81.7097 39.0791 78.4311C41.226 76.0218 43.3661 73.6126 45.4993 71.1964C47.0328 69.4648 48.7844 68.5955 51.2516 68.664C57.89 68.8419 64.5351 68.6913 71.1803 68.7324C79.7406 68.7872 86.9037 62.148 87.0605 52.7846C87.2445 41.5801 87.115 30.3756 87.1014 19.1711C87.0946 10.7866 83.3733 6.03646 75.3173 3.45607C73.5521 2.89482 71.8891 2.71001 70.1375 2.70317C61.6181 2.68264 53.0987 2.69633 44.586 2.69633H44.5929Z" fill="#FFFFF5"/>
<path d="M58.2648 43.038C57.6787 43.5787 57.0994 44.1263 56.5132 44.667C55.375 43.832 54.673 44.5575 53.9097 45.3309C51.4561 47.8292 48.873 50.1974 46.5353 52.7983C45.1654 54.3247 44.3202 54.0783 43.1071 52.6957C41.5327 50.9024 39.7402 49.3076 38.084 47.5828C34.2469 43.5787 29.9872 39.9854 26.5317 35.6254C24.2689 32.7781 24.0508 29.4927 25.6865 26.221C27.3564 22.874 30.1235 21.1492 33.872 21.0465C37.1026 20.9575 39.4676 22.5113 41.6349 24.7905C44.3407 27.631 45.4584 27.5215 48.171 24.7905C48.5322 24.4277 48.873 24.0444 49.2411 23.6885C52.8329 20.2252 58.517 20.0746 61.9793 23.3463C65.7619 26.9123 66.0686 32.5659 62.6336 36.4946C61.4545 37.843 60.1664 39.0956 58.8714 40.3344C58.0399 41.1284 57.631 41.9429 58.258 43.038H58.2648Z" fill="black"/>
<path d="M58.2648 43.038C57.631 41.9429 58.0467 41.1284 58.8782 40.3344C60.1732 39.0956 61.4613 37.843 62.6404 36.4946C66.0755 32.5659 65.7688 26.9123 61.9861 23.3463C58.517 20.0746 52.8397 20.2252 49.2479 23.6885C48.8798 24.0444 48.5391 24.4277 48.1778 24.7905C45.4653 27.5283 44.3475 27.631 41.6417 24.7905C39.4676 22.5113 37.1094 20.9576 33.8788 21.0465C30.1303 21.1492 27.3632 22.874 25.6934 26.221C24.0644 29.4927 24.2825 32.7781 26.5385 35.6254C29.994 39.9785 34.2537 43.5787 38.0908 47.5828C39.7402 49.3076 41.5395 50.9024 43.1139 52.6957C44.3271 54.0714 45.1722 54.3247 46.5421 52.7983C48.8798 50.2043 51.4629 47.8292 53.9165 45.3309C54.673 44.5575 55.3819 43.8251 56.5201 44.667C57.0244 45.769 56.6223 46.5903 55.8044 47.3775C52.8806 50.1906 50.3656 53.4007 47.2441 56.0153C45.5879 57.4047 44.0885 57.4868 42.5346 55.9263C36.7686 50.1221 30.8595 44.4548 25.2572 38.4933C19.3481 32.2031 21.6381 23.9075 27.7517 19.6982C32.0114 16.7687 38.786 18.0692 42.5686 21.8747C44.034 23.3531 44.7428 24.2703 46.7398 22.0527C51.2039 17.0835 57.5015 17.3026 62.2792 19.8556C66.8933 22.3196 68.8426 29.082 67.1455 34.1949C65.9051 37.932 62.7972 40.2044 60.2413 42.8943C59.7234 43.435 58.9464 43.1475 58.2785 43.0449L58.2648 43.038Z" fill="#FFFFF5"/>
</svg>
