<svg width="114" height="114" viewBox="0 0 114 114" fill="none" xmlns="http://www.w3.org/2000/svg">
<path d="M82.0411 95.6522C86.895 96.0503 85.9304 99.4113 85.9533 102.275C85.9763 105.146 85.9686 108.017 85.9533 110.888C85.9457 112.993 84.9427 113.973 82.776 113.973C65.458 113.943 48.1322 113.927 30.8141 113.981C28.5479 113.981 27.8589 113.146 27.9584 110.918C28.1345 107.006 28.1268 103.071 27.9584 99.151C27.8665 97.0456 28.3642 95.8359 30.8983 96.0886C30.0944 93.9985 28.5785 92.628 27.1775 91.6481C18.4189 85.5232 13.3046 76.8488 9.57611 67.1868C6.79695 59.9824 3.25983 53.0996 0.763943 45.7727C-0.667747 41.5695 -0.124164 38.0171 2.70859 36.616C5.72509 35.1231 10.0891 36.7768 12.1945 40.2374C14.5066 44.0271 16.8877 47.7863 19.062 51.6603C19.9348 53.2221 20.8689 53.8576 22.6757 53.5513C25.2175 53.1226 27.2464 54.1485 28.8082 56.2003C34.8565 64.1321 41.0044 71.9642 49.6864 77.3312C52.2206 78.9007 53.9202 81.4195 55.8036 83.701C56.3549 84.3748 56.9597 85.0409 57.6947 83.8618C60.9638 78.6327 66.2006 75.5243 70.9014 71.903C74.9132 68.8099 77.8532 64.867 80.9462 61.0007C81.9492 59.7375 82.9674 58.4819 83.9015 57.1727C85.8232 54.4777 88.1659 52.7704 91.6801 53.6355C93.6477 54.1179 94.0918 52.3723 94.7731 51.3234C97.2461 47.48 99.5123 43.4989 101.916 39.6172C104.083 36.1184 107.291 35.1997 110.79 36.9682C113.822 38.4994 114.87 41.5159 113.224 45.1985C108.47 55.8405 104.527 66.8347 99.252 77.2469C97.2384 81.2128 94.4669 84.5202 91.1901 87.4602C88.2884 90.0633 85.3868 92.6663 82.0487 95.6599L82.0411 95.6522ZM45.5291 96.0733C47.826 96.0733 50.1381 95.8972 52.412 96.1192C54.8925 96.3566 55.0074 95.1852 54.7088 93.2635C53.7518 87.1539 50.0615 82.966 45.2688 79.5055C41.9384 77.1091 38.409 74.9042 35.7217 71.7575C32.3071 67.7687 29.0992 63.6038 25.7688 59.5384C25.0874 58.7039 24.4596 57.3488 23.0355 58.168C21.5885 59.0025 22.5455 60.2351 22.9054 61.2151C24.5285 65.6173 26.5956 69.8052 28.9767 73.8476C29.7959 75.241 30.3854 76.7416 28.5479 77.7982C26.7947 78.8088 25.8453 77.5073 25.1486 76.2363C23.5485 73.3117 22.0862 70.3029 20.5473 67.34C18.9089 64.1856 18.6869 60.4724 17.2246 57.4023C14.698 52.0814 11.2069 47.2197 8.07552 42.1973C7.486 41.248 6.72804 40.1302 5.33463 40.9417C3.94888 41.7456 4.57668 42.9247 5.01308 43.9736C6.75101 48.1078 8.55785 52.2115 10.2652 56.3611C15.3335 68.6338 19.8582 81.2511 31.4572 89.3359C32.5444 90.0939 33.4708 91.0968 34.4508 92.0156C34.9331 92.4673 35.76 93.0108 35.737 93.4779C35.5762 96.8236 37.9266 96.0427 39.7871 96.0656C41.7011 96.0886 43.6151 96.0656 45.5291 96.0656V96.0733ZM68.4745 96.0733C70.0057 96.0733 71.5369 96.1039 73.0681 96.0733C75.3114 96.0197 78.1747 97.0992 78.4044 93.1793C78.4274 92.7582 79.1624 92.3677 79.5835 91.9849C82.1253 89.6651 84.6212 87.2917 87.2319 85.0485C91.7413 81.1745 95.0794 76.5349 97.3609 71.0149C101.074 62.019 104.994 53.1073 108.837 44.165C109.327 43.0319 110.17 41.7686 108.569 40.9571C107.076 40.1991 106.319 41.447 105.668 42.5112C102.774 47.2351 99.8951 51.9665 97.024 56.7056C96.7255 57.1956 96.3197 57.6933 96.2584 58.2215C95.4699 64.8594 91.9404 70.3641 88.9162 76.0679C88.1583 77.4996 87.2013 78.8164 85.3561 77.7676C83.5187 76.7263 84.1159 75.3635 84.9963 73.8859C87.3467 69.9507 89.322 65.8087 90.9834 61.5366C91.3892 60.4801 92.4227 59.0867 90.9221 58.2062C89.3909 57.3105 88.7478 58.9029 88.0511 59.8064C81.9568 67.6692 75.8013 75.4707 67.127 80.7764C66.3231 81.2664 65.657 81.9937 64.9527 82.6445C61.7601 85.6074 59.8996 89.244 59.2182 93.5621C58.9273 95.3996 59.2182 96.2417 61.3007 96.1192C63.6817 95.9738 66.0858 96.0886 68.4745 96.0886V96.0733ZM43.3625 109.433C44.9856 109.433 46.6163 109.433 48.2394 109.433C53.0321 109.433 55.2269 107.021 54.8236 102.198C54.816 102.106 54.816 102.007 54.8236 101.915C54.9385 100.858 54.3566 100.667 53.4455 100.667C46.9455 100.69 40.4378 100.705 33.9378 100.667C31.6793 100.652 32.3377 102.42 32.5674 103.293C33.1033 105.33 30.7988 108.017 33.9072 109.418C34.3053 109.594 34.8489 109.448 35.3312 109.448C38.0109 109.448 40.6905 109.448 43.3625 109.448V109.433ZM70.2124 100.675H65.6187C58.8278 100.675 58.889 100.675 59.0422 107.42C59.0804 109.096 59.6393 109.494 61.2012 109.464C65.6953 109.38 70.1894 109.433 74.6912 109.433C81.8803 109.433 81.842 109.433 81.3673 102.229C81.2831 100.95 80.885 100.621 79.683 100.652C76.5287 100.721 73.3667 100.675 70.2124 100.675Z" fill="#FFFFF5"/>
<path d="M94.8114 23.884C94.62 32.2061 90.8532 39.6325 85.7007 46.5996C79.7519 54.6462 72.2489 60.9931 63.9727 66.3753C60.2442 68.8023 56.1405 70.2722 51.3554 67.4471C43.3548 62.7233 36.4643 56.8358 30.4619 49.8611C27.3612 46.2551 24.3907 42.4653 22.423 38.086C18.2734 28.8528 16.681 19.6119 22.5915 10.3863C29.5126 -0.424147 44.0132 -2.81285 53.8513 3.35796C55.9338 4.66716 57.3348 4.75137 59.4862 3.49577C72.2259 -3.92298 87.0252 0.85442 93.0505 14.1531C94.13 16.5418 94.7885 19.964 94.8114 23.8763V23.884ZM90.5317 22.8734C90.2331 15.4929 86.7572 9.8733 80.0811 6.48165C72.9762 2.87563 66.0934 3.7178 60.091 8.92395C57.6487 11.0447 56.1788 10.9834 53.836 8.8627C49.9161 5.32558 45.1157 3.66421 39.7947 4.59825C27.1775 6.81086 20.3712 18.2108 24.7811 30.3993C30.2629 45.5584 40.9891 56.208 55.0227 63.7569C56.4391 64.5149 57.6181 64.4306 59.0039 63.7416C68.8419 58.88 76.498 51.5072 82.8679 42.7562C87.1324 36.907 90.2101 30.4912 90.524 22.8657L90.5317 22.8734Z" fill="#FFFFF5"/>
<path d="M50.2683 45.9105C50.2683 45.5277 50.2683 45.1449 50.2683 44.7621C50.2453 42.9476 50.8042 40.8192 50.0386 39.3952C49.1045 37.6649 46.7388 38.9588 45.0162 38.6373C41.9155 38.063 40.1163 35.6897 40.1546 31.8922C40.1928 28.0565 42.0992 25.7138 45.5062 25.2621C47.0068 25.063 48.8825 25.8975 49.9161 24.8257C50.9343 23.7691 50.1075 21.8934 50.3142 20.3928C50.7583 17.1849 52.9862 15.2785 56.4391 15.179C60.5657 15.0641 63.0539 16.7638 63.6435 20.1172C63.743 20.6761 63.8578 21.2732 63.766 21.8245C63.2989 24.5577 64.3019 25.4228 67.1346 25.2927C71.5675 25.0936 73.7954 27.5436 73.7954 31.9611C73.7954 36.4935 71.6977 38.8057 67.1576 38.5913C64.3708 38.4612 63.4827 39.2421 63.7277 42.0289C63.988 45.0684 63.8655 48.1461 63.766 51.2009C63.6282 55.4271 61.1093 57.6091 56.6534 57.5248C52.6263 57.4483 50.3755 55.1821 50.2836 51.0478C50.2453 49.3252 50.2836 47.6025 50.2836 45.8876L50.2683 45.9105ZM54.8619 43.9429C54.8619 46.1402 54.9615 48.3375 54.8313 50.5272C54.7318 52.2804 55.4208 52.9235 57.1128 52.9312C58.9273 52.9312 59.0345 51.8364 59.0268 50.4659C58.9962 46.2627 59.0498 42.0672 59.0039 37.864C58.9809 35.2303 60.1446 33.967 62.8319 34.1202C64.1641 34.1967 65.5116 34.0589 66.8361 34.1508C68.5357 34.2733 69.2248 33.6531 69.2324 31.8769C69.2477 30.0395 68.2448 29.9017 66.859 29.9246C59.9226 30.0471 58.6134 31.0271 59.0115 22.1384C59.0728 20.7603 58.9197 19.7344 57.0822 19.7344C55.2907 19.7344 54.8619 20.5 54.8236 22.1613C54.6399 29.4882 54.594 29.5342 47.045 29.894C45.4373 29.9706 44.8937 30.5065 44.8937 32.0913C44.8937 33.7909 45.6593 34.235 47.1752 34.1431C48.4078 34.0666 49.6558 34.1202 50.8961 34.1278C54.1805 34.1508 54.8236 34.8169 54.8543 38.2009C54.8696 40.1072 54.8543 42.0212 54.8543 43.9276L54.8619 43.9429Z" fill="#FFFFF5"/>
<path d="M54.8619 43.9506C54.8619 42.0442 54.8696 40.1302 54.8619 38.2238C54.839 34.8322 54.1882 34.1738 50.9037 34.1508C49.6634 34.1431 48.4155 34.0895 47.1829 34.1661C45.667 34.258 44.8937 33.8139 44.9013 32.1143C44.9013 30.5294 45.4449 29.9935 47.0527 29.917C54.6016 29.5495 54.6476 29.5035 54.8313 22.1843C54.8696 20.5229 55.2983 19.7573 57.0898 19.7573C58.9273 19.7573 59.0804 20.7909 59.0192 22.1613C58.6211 31.0424 59.9303 30.0624 66.8667 29.9476C68.2524 29.9246 69.2477 30.0624 69.2401 31.8999C69.2248 33.6761 68.5357 34.2962 66.8437 34.1738C65.5116 34.0819 64.1717 34.2197 62.8396 34.1431C60.1523 33.99 58.9886 35.2533 59.0115 37.887C59.0498 42.0902 59.0039 46.2857 59.0345 50.4889C59.0421 51.8593 58.935 52.9542 57.1205 52.9542C55.4285 52.9542 54.7394 52.3034 54.839 50.5501C54.9691 48.3605 54.8696 46.1632 54.8696 43.9659L54.8619 43.9506Z" fill="black"/>
</svg>
