<svg width="86" height="114" viewBox="0 0 86 114" fill="none" xmlns="http://www.w3.org/2000/svg">
<path d="M3.64013 89.1181C6.14444 88.0952 8.52177 87.5802 11.0049 87.806C11.9431 87.8906 12.2465 87.3616 12.2112 86.515C12.1901 86.0777 12.2112 85.6332 12.2112 85.1959C12.2112 58.749 12.1901 32.3091 12.2535 5.8622C12.2535 3.93635 11.8585 3.2944 9.80567 3.33673C2.85004 3.48487 3.64719 2.86408 3.64013 9.4035C3.62602 24.7397 3.64013 40.076 3.64013 55.4193C3.64013 56.8866 3.85882 58.3821 2.01057 59.1652C0.82543 59.666 0.388058 59.2992 0.197589 58.2551C0.0706101 57.5709 0.0423925 56.8584 0.0423925 56.16C0.0353381 39.1448 0.0353381 22.1367 0.0423925 5.12149C0.0423925 1.47437 1.41094 0.0282176 5.01574 0.0211632C20.1756 0 35.3426 0.0141088 50.5024 0C51.8146 0 53.2325 0.0493807 53.2395 1.67189C53.2395 3.27324 51.8569 3.40727 50.5236 3.40727C39.8574 3.38611 29.1911 3.4496 18.5249 3.35084C16.5497 3.32967 16.0347 3.82348 16.0417 5.81987C16.1123 32.3514 16.1123 58.883 16.0417 85.4146C16.0417 87.3757 16.5214 87.9118 18.5178 87.9047C38.7922 87.8271 59.0665 87.8342 79.3408 87.8977C81.2525 87.8977 81.8874 87.4744 81.8804 85.4357C81.8098 59.1652 81.8169 32.9017 81.8663 6.63113C81.8663 4.23969 81.0127 3.32262 78.6142 3.372C73.1541 3.47781 67.6869 3.39316 62.2198 3.40022C60.8794 3.40022 59.1864 3.5413 59.2428 1.72833C59.2993 0.183414 60.8512 0 62.2339 0C68.0538 0.0211632 73.8666 0 79.6865 0.0141088C83.2207 0.0141088 85.3229 2.05988 85.5063 5.64351C85.5345 6.17259 85.5063 6.70167 85.5063 7.23075C85.5063 37.5505 85.5063 67.8773 85.4922 98.1971C85.4922 99.1565 85.5275 100.165 85.2524 101.061C84.3353 104.059 82.8186 105.047 79.2561 105.047C61.9799 105.047 44.7037 105.019 27.4205 105.005C25.1113 105.005 23.9662 106.129 23.985 108.377C23.985 109.082 24.0626 109.787 23.9991 110.493C23.7875 113.04 21.9604 114.486 19.8652 113.167C17.3609 111.593 15.4351 111.812 13.1847 113.301C12.0913 114.027 10.6451 114.486 9.6928 113.131C8.87449 111.96 7.51299 111.008 8.66991 108.969C9.89738 106.796 8.83216 105.513 6.36313 105.407C3.95758 105.308 0.0494469 101.061 0.0353381 98.3029C0.00712055 88.1517 0.0706101 78.0145 6.6159e-05 67.8773C-0.00698823 66.5934 0.550309 66.142 1.5732 65.9374C2.70895 65.7046 3.20981 66.4806 3.39323 67.3906C3.5837 68.3288 3.62602 69.3094 3.62602 70.2688C3.64719 76.4343 3.63308 82.5999 3.63308 89.1181H3.64013ZM44.5485 91.4461C41.3811 91.4461 38.2066 91.4461 35.0392 91.4461C26.4117 91.4461 17.7842 91.4602 9.15666 91.4461C6.54654 91.4461 4.80411 92.6665 3.90114 95.0579C3.06873 97.273 4.01401 98.9872 5.6718 100.412C6.42662 101.068 7.36485 101.597 8.31719 101.273C9.4459 100.885 8.85332 99.7491 8.86743 98.9731C8.93092 94.9239 9.33302 94.4935 13.4246 94.4935C35.4343 94.4935 57.444 94.5077 79.4537 94.4724C80.3848 94.4724 81.8098 95.199 81.8663 93.1179C81.9227 91.0016 80.5541 91.4672 79.4113 91.4672C67.7928 91.4531 56.1671 91.4602 44.5485 91.4602V91.4461ZM53.0702 98.1689C44.0759 98.1689 35.0816 98.1759 26.0943 98.1548C24.9303 98.1548 24.0838 98.1689 24.0696 99.7702C24.0555 101.365 24.8809 101.407 26.0519 101.407C43.8643 101.393 61.6695 101.393 79.4819 101.407C80.9351 101.407 81.8874 101.026 81.8522 99.354C81.8169 97.4705 80.3848 98.2042 79.5242 98.1971C70.7062 98.1477 61.8882 98.1689 53.0773 98.1689H53.0702ZM20.3449 109.068C20.3449 105.463 20.3026 102.507 20.359 99.5586C20.3873 98.056 19.4137 98.0066 18.4544 98.1971C16.5003 98.5921 14.2147 97.0684 12.5569 99.1777C12.5146 99.2341 12.5498 99.347 12.5498 99.4387C12.5498 102.239 12.5639 105.04 12.5498 107.84C12.5428 108.997 13.1636 109.004 13.8478 108.504C15.8866 107.008 17.8688 107.072 20.3449 109.075V109.068Z" fill="#FFFFF5"/>
<path d="M42.0089 57.6344C42.0089 53.4088 41.8678 49.1691 42.0653 44.9506C42.1711 42.6508 41.3669 42.1288 39.2436 42.2558C36.3442 42.4322 33.4308 42.2346 30.5243 42.3193C28.147 42.3828 27.1171 41.113 27.0324 38.9684C26.9337 36.5911 26.9266 34.2067 27.0324 31.8365C27.1241 29.826 28.0835 28.5844 30.3621 28.6479C33.4449 28.7325 36.5347 28.528 39.6104 28.7184C41.6914 28.8454 42.1782 28.0624 42.0442 26.1718C41.896 24.0696 42.0442 21.9462 42.0018 19.8299C41.9595 17.7277 43.0388 16.733 45.0493 16.6836C47.335 16.6343 49.6276 16.6343 51.9203 16.6695C54.7703 16.7118 55.645 17.5302 55.7861 20.4366C55.8849 22.5458 55.8849 24.6692 55.7861 26.7785C55.7085 28.2669 56.1953 28.7607 57.7049 28.7043C60.8723 28.5914 64.0468 28.7325 67.2142 28.6549C69.5916 28.5985 70.5862 29.6708 70.5157 31.9987C70.4451 34.376 70.4734 36.7534 70.5016 39.1307C70.5298 41.3528 69.4364 42.3334 67.2566 42.3052C64.2584 42.2699 61.2603 42.418 58.2763 42.2628C56.3646 42.1641 55.7226 42.6156 55.7579 44.6755C55.8919 52.9502 55.8143 61.2321 55.8143 69.514C55.8143 74.1487 55.1724 74.7695 50.4389 74.7695C48.8517 74.7695 47.2644 74.8047 45.6842 74.7624C42.9542 74.6848 42.0442 73.7819 42.0301 71.1083C42.0089 66.6146 42.0301 62.121 42.0301 57.6344H42.0089ZM45.522 55.7297C45.522 60.047 45.6348 64.3642 45.4726 68.6745C45.395 70.7344 46.1287 71.3834 48.0404 71.1083C48.5554 71.0307 49.1056 71.0307 49.6206 71.1083C51.7087 71.4257 52.2942 70.5862 52.266 68.4981C52.1461 59.9552 52.2095 51.4124 52.2237 42.8695C52.2237 39.7233 53.1196 38.8274 56.294 38.785C59.2004 38.7498 62.1069 38.7145 65.0133 38.8062C66.537 38.8556 66.9885 38.2701 66.9673 36.8027C66.8756 31.1522 67.4188 32.2245 62.382 32.1186C61.5002 32.0975 60.6184 32.0975 59.7366 32.1186C51.1796 32.295 52.273 31.5966 52.2095 24.6198C52.1672 19.717 53.1972 20.4083 47.6242 20.2673C46.0299 20.2249 45.395 20.7117 45.4867 22.3554C45.5996 24.3729 45.4938 26.4046 45.5149 28.4292C45.5431 30.8347 44.3016 32.0128 41.9736 32.0763C39.5963 32.1327 37.219 32.0763 34.8416 32.1186C29.9882 32.2174 30.7501 31.2157 30.5878 36.5206C30.5385 38.2066 30.9899 38.8909 32.7818 38.8062C35.6811 38.6722 38.5946 38.7286 41.501 38.7639C44.3651 38.7921 45.4797 39.8996 45.5008 42.7778C45.5361 47.0951 45.5079 51.4124 45.5149 55.7226L45.522 55.7297Z" fill="#FFFFF5"/>
<path d="M45.522 55.7297C45.522 51.4124 45.5431 47.0951 45.5149 42.7849C45.4938 39.9067 44.3792 38.7991 41.5151 38.7709C38.6087 38.7427 35.6952 38.6792 32.7959 38.8133C31.004 38.8979 30.5455 38.2066 30.6019 36.5276C30.7642 31.2298 30.0023 32.2245 34.8557 32.1257C37.2331 32.0763 39.6104 32.1398 41.9877 32.0834C44.3157 32.0269 45.5573 30.8418 45.529 28.4362C45.5079 26.4116 45.6137 24.38 45.5008 22.3624C45.4091 20.7187 46.044 20.232 47.6383 20.2743C53.2113 20.4154 52.1743 19.7241 52.2237 24.6269C52.2871 31.6037 51.1937 32.295 59.7507 32.1257C60.6325 32.1045 61.5143 32.1045 62.3961 32.1257C67.4329 32.2315 66.8897 31.1592 66.9814 36.8098C67.0026 38.2701 66.5511 38.8626 65.0274 38.8133C62.121 38.7215 59.2146 38.7639 56.3081 38.7921C53.1337 38.8274 52.2448 39.7233 52.2378 42.8766C52.2237 51.4194 52.1672 59.9623 52.2801 68.5052C52.3083 70.5933 51.7228 71.4398 49.6347 71.1153C49.1197 71.0377 48.5695 71.0377 48.0545 71.1153C46.1428 71.3975 45.4091 70.7414 45.4867 68.6815C45.6419 64.3713 45.5361 60.054 45.5361 55.7367L45.522 55.7297Z" fill="black"/>
</svg>
