<svg width="634" height="111" viewBox="0 0 634 111" fill="none" xmlns="http://www.w3.org/2000/svg">
<path d="M632.388 53.7081C632.388 56.6866 630.511 59.8086 626.42 63.024C622.349 66.224 616.273 69.3618 608.336 72.3801C592.474 78.412 569.454 83.8664 540.927 88.4548C483.89 97.6288 405.053 103.308 317.941 103.308C230.83 103.308 151.992 97.6288 94.956 88.4548C66.4286 83.8664 43.4087 78.412 27.5469 72.3801C19.6097 69.3618 13.5334 66.224 9.46224 63.024C5.37152 59.8086 3.49471 56.6866 3.49471 53.7081C3.49471 50.7297 5.37152 47.6077 9.46224 44.3923C13.5334 41.1923 19.6097 38.0545 27.5469 35.0361C43.4087 29.0042 66.4286 23.5499 94.956 18.9614C151.992 9.78747 230.83 4.10775 317.941 4.10775C405.053 4.10775 483.89 9.78747 540.927 18.9614C569.454 23.5499 592.474 29.0042 608.336 35.0361C616.273 38.0545 622.349 41.1923 626.42 44.3923C630.511 47.6077 632.388 50.7297 632.388 53.7081Z" stroke="#F7F2CC" stroke-width="2.32731"/>
<path d="M631.992 54.6113C632.011 57.5888 630.15 60.7156 626.069 63.9421C622.008 67.1529 615.936 70.3064 607.998 73.345C592.135 79.4175 569.091 84.9304 540.521 89.5911C483.398 98.9096 404.396 104.789 317.063 105.008C229.73 105.228 150.654 99.7464 93.4131 90.7155C64.7833 86.1986 41.6692 80.8018 25.7274 74.8093C17.7503 71.8106 11.6378 68.6878 7.53524 65.4975C3.41262 62.2917 1.51146 59.1743 1.49219 56.1968C1.47292 53.2193 3.33368 50.0925 7.41466 46.866C11.4758 43.6552 17.5477 40.5017 25.4858 37.4631C41.3494 31.3905 64.3929 25.8777 92.9634 21.217C150.086 11.8985 229.088 6.01957 316.421 5.79995C403.754 5.58033 482.83 11.0617 540.071 20.0926C568.701 24.6095 591.815 30.0063 607.757 35.9988C615.734 38.9975 621.846 42.1203 625.949 45.3106C630.071 48.5164 631.973 51.6338 631.992 54.6113Z" stroke="#F7F2CC" stroke-width="2.32731"/>
<path d="M629.017 49.8032C629.044 52.7126 627.234 55.8021 623.244 59.0282C619.273 62.2382 613.33 65.4246 605.556 68.5281C590.019 74.73 567.441 80.4956 539.439 85.5121C483.453 95.5417 406.004 102.54 320.369 104.118C234.734 105.696 157.181 101.555 101.029 93.5921C72.943 89.6094 50.2648 84.6778 34.6183 79.0506C26.7887 76.2347 20.7887 73.2685 16.7596 70.2059C12.7103 67.128 10.844 64.1062 10.8169 61.1968C10.7899 58.2875 12.5994 55.1979 16.59 51.9718C20.5607 48.7618 26.5035 45.5754 34.278 42.472C49.8145 36.27 72.3933 30.5044 100.395 25.4879C156.38 15.4583 233.83 8.46015 319.465 6.88188C405.099 5.3036 482.653 9.44502 538.805 17.4079C566.891 21.3907 589.569 26.3222 605.216 31.9494C613.045 34.7653 619.045 37.7315 623.074 40.7941C627.123 43.8721 628.99 46.8938 629.017 49.8032Z" stroke="#F7F2CC" stroke-width="2.32731"/>
</svg>
