<svg width="25" height="18" viewBox="0 0 25 18" fill="none" xmlns="http://www.w3.org/2000/svg">
<path d="M4.33878 0.421642C7.75815 0.251204 10.4177 0.166016 12.3175 0.166016C14.2174 0.166016 16.8779 0.251266 20.299 0.421703C22.1509 0.513985 23.6487 1.96224 23.8031 3.80992C23.9596 5.68147 24.0378 7.32983 24.0378 8.75502C24.0378 10.1977 23.9576 11.869 23.7973 13.7691C23.6434 15.5938 22.1781 17.0317 20.3508 17.1511C17.426 17.3424 14.7482 17.438 12.3175 17.438C9.88705 17.438 7.21026 17.3424 4.28709 17.1513C2.46038 17.0318 0.995449 15.5948 0.840728 13.7708C0.678353 11.8566 0.597168 10.1847 0.597168 8.75502C0.597168 7.3426 0.676416 5.69368 0.834905 3.80819C0.990162 1.96126 2.48765 0.513924 4.33878 0.421642Z" fill="#FFFFF5"/>
<path d="M10.4678 6.09323V11.5197C10.4678 11.8116 10.7045 12.0484 10.9965 12.0484C11.1002 12.0484 11.2016 12.0179 11.2881 11.9607L15.3579 9.27091C15.6015 9.10991 15.6684 8.78186 15.5074 8.53827C15.4689 8.48004 15.4192 8.42995 15.3613 8.39102L11.2915 5.65446C11.0492 5.49154 10.7207 5.55588 10.5577 5.79825C10.4991 5.88547 10.4678 5.98818 10.4678 6.09323Z" fill="black"/>
</svg>
