<svg width="27" height="21" viewBox="0 0 27 21" fill="none" xmlns="http://www.w3.org/2000/svg">
<path d="M4.91183 1.24075C8.68978 1.05243 11.6283 0.958313 13.7272 0.958313C15.8264 0.958313 18.7659 1.0525 22.5458 1.24081C24.5919 1.34277 26.2467 2.94291 26.4174 4.98435C26.5902 7.05217 26.6766 8.8734 26.6766 10.448C26.6766 12.042 26.5881 13.8886 26.411 15.9879C26.2409 18.004 24.622 19.5926 22.603 19.7247C19.3715 19.936 16.4129 20.0416 13.7272 20.0416C11.0419 20.0416 8.08443 19.936 4.85471 19.7248C2.83643 19.5928 1.21788 18.0051 1.04693 15.9898C0.867531 13.8749 0.777832 12.0276 0.777832 10.448C0.777832 8.88751 0.865391 7.06566 1.0405 4.98244C1.21204 2.94182 2.86656 1.34271 4.91183 1.24075Z" fill="black"/>
<path d="M11.6836 7.50732V13.5028C11.6836 13.8254 11.9452 14.087 12.2677 14.087C12.3823 14.087 12.4944 14.0533 12.5899 13.9901L17.0865 11.0182C17.3556 10.8404 17.4296 10.4779 17.2517 10.2088C17.2092 10.1444 17.1543 10.0891 17.0903 10.0461L12.5937 7.02254C12.326 6.84254 11.963 6.91363 11.783 7.18141C11.7182 7.27778 11.6836 7.39125 11.6836 7.50732Z" fill="#FFFFF5"/>
</svg>
