<svg width="222" height="67" viewBox="0 0 222 67" fill="none" xmlns="http://www.w3.org/2000/svg">
<path d="M48.3888 42.0611C51.6643 45.9322 53.2277 50.8704 53.5999 52.8556C49.7288 57.62 43.3018 59.8037 40.5721 60.3C41.4655 58.2156 39.7036 53.2278 38.711 50.9944C37.8177 50.9944 36.1055 52.9796 35.361 53.9722C33.2766 53.6744 33.2518 48.637 33.4999 46.1556C30.6589 46.7237 30.3025 52.5321 30.4913 55.7583C30.5114 55.9046 30.5221 56.0538 30.5221 56.2056C30.5107 56.063 30.5004 55.9136 30.4913 55.7583C30.2746 54.1812 28.97 52.9375 28.2888 52.4833C28.4129 53.6 28.3632 56.0567 27.1721 56.95C25.981 57.8433 26.1795 60.5481 26.4277 61.7889C22.9536 60.7963 15.4843 57.8433 13.3999 53.9722C10.7943 49.1333 16.3776 40.9444 17.8665 37.2222C19.0576 34.2444 18.3628 29.7778 17.8665 27.9167C22.3332 27.9167 24.9388 34.8648 25.6832 38.3389C26.6758 37.9667 29.2565 36.0311 31.6388 31.2667C34.021 26.5022 33.6239 17.3704 33.1276 13.4C40.9443 16.75 42.4332 29.0333 40.9443 30.8944C39.4554 32.7556 39.8277 44.2944 40.9443 45.0389C42.061 45.7833 42.061 44.2944 42.4332 39.0833C42.731 34.9144 46.5277 32.3833 48.3888 31.6389C47.024 33.5 45.1132 38.19 48.3888 42.0611Z" fill="#D43026"/>
<circle cx="33.5" cy="33.5" r="32.358" stroke="#3E433D" stroke-width="2.28409"/>
<path d="M81.2978 28.0456C80.9539 27.2546 80.4266 26.6356 79.7159 26.1886C79.0167 25.7301 78.1914 25.5008 77.2399 25.5008C76.3458 25.5008 75.5434 25.7071 74.8327 26.1198C74.122 26.5325 73.5603 27.1228 73.1477 27.8908C72.735 28.6474 72.5287 29.53 72.5287 30.5388C72.5287 31.5475 72.735 32.4359 73.1477 33.2039C73.5603 33.9719 74.122 34.5623 74.8327 34.9749C75.5434 35.3876 76.3458 35.5939 77.2399 35.5939C78.0767 35.5939 78.8276 35.4163 79.4924 35.0609C80.1687 34.6941 80.7075 34.1783 81.1087 33.5134C81.5213 32.8371 81.7563 32.0519 81.8137 31.1578H76.7585V30.1777H83.086V31.0546C83.0287 32.1092 82.7422 33.0664 82.2263 33.9261C81.7105 34.7743 81.017 35.4449 80.1458 35.9378C79.2861 36.4307 78.3175 36.6772 77.2399 36.6772C76.128 36.6772 75.1193 36.4193 74.2137 35.9034C73.3081 35.3761 72.5917 34.6482 72.0644 33.7197C71.5486 32.7798 71.2907 31.7195 71.2907 30.5388C71.2907 29.3581 71.5486 28.3035 72.0644 27.375C72.5917 26.435 73.3081 25.7071 74.2137 25.1913C75.1193 24.664 76.128 24.4004 77.2399 24.4004C78.5238 24.4004 79.6472 24.7213 80.61 25.3633C81.5729 26.0052 82.2722 26.8993 82.7078 28.0456H81.2978ZM86.4944 35.5767H90.8102V36.5568H85.2908V24.5379H86.4944V35.5767ZM97.927 36.6772C96.8151 36.6772 95.8063 36.4193 94.9008 35.9034C93.9952 35.3761 93.2788 34.6482 92.7515 33.7197C92.2356 32.7798 91.9777 31.7195 91.9777 30.5388C91.9777 29.3581 92.2356 28.3035 92.7515 27.375C93.2788 26.435 93.9952 25.7071 94.9008 25.1913C95.8063 24.664 96.8151 24.4004 97.927 24.4004C99.0504 24.4004 100.065 24.664 100.97 25.1913C101.876 25.7071 102.587 26.435 103.103 27.375C103.618 28.3035 103.876 29.3581 103.876 30.5388C103.876 31.7195 103.618 32.7798 103.103 33.7197C102.587 34.6482 101.876 35.3761 100.97 35.9034C100.065 36.4193 99.0504 36.6772 97.927 36.6772ZM97.927 35.6283C98.8211 35.6283 99.6235 35.422 100.334 35.0093C101.045 34.5967 101.607 34.0063 102.019 33.2383C102.432 32.4588 102.638 31.559 102.638 30.5388C102.638 29.5186 102.432 28.6245 102.019 27.8564C101.607 27.0884 101.045 26.4981 100.334 26.0854C99.6235 25.6728 98.8211 25.4664 97.927 25.4664C97.0329 25.4664 96.2305 25.6728 95.5198 26.0854C94.8091 26.4981 94.2474 27.0884 93.8347 27.8564C93.422 28.6245 93.2157 29.5186 93.2157 30.5388C93.2157 31.559 93.422 32.4588 93.8347 33.2383C94.2474 34.0063 94.8091 34.5967 95.5198 35.0093C96.2305 35.422 97.0329 35.6283 97.927 35.6283ZM111.701 30.3496C112.378 30.4757 112.951 30.8196 113.421 31.3813C113.891 31.943 114.126 32.5964 114.126 33.3415C114.126 33.949 113.971 34.4992 113.661 34.9921C113.363 35.4736 112.922 35.8576 112.337 36.1442C111.753 36.4193 111.054 36.5568 110.24 36.5568H106.079V24.5379H110.119C111.334 24.5379 112.257 24.8188 112.888 25.3804C113.53 25.9421 113.85 26.67 113.85 27.5641C113.85 28.3092 113.65 28.9168 113.249 29.3867C112.847 29.8453 112.332 30.1662 111.701 30.3496ZM107.282 29.851H110.085C110.899 29.851 111.524 29.6619 111.959 29.2836C112.406 28.8938 112.63 28.3608 112.63 27.6845C112.63 27.0196 112.406 26.4981 111.959 26.1198C111.524 25.7415 110.882 25.5524 110.033 25.5524H107.282V29.851ZM110.154 35.5424C111.025 35.5424 111.701 35.336 112.183 34.9234C112.676 34.5107 112.922 33.9433 112.922 33.2211C112.922 32.4989 112.664 31.9258 112.148 31.5017C111.644 31.0661 110.962 30.8483 110.102 30.8483H107.282V35.5424H110.154ZM123.302 33.7025H117.834L116.785 36.5568H115.513L119.897 24.6927H121.256L125.623 36.5568H124.351L123.302 33.7025ZM122.941 32.7053L120.568 26.2058L118.195 32.7053H122.941ZM128.758 35.5767H133.074V36.5568H127.555V24.5379H128.758V35.5767ZM151.254 24.6927V36.5568H150.051V27.0827L145.821 36.5568H144.944L140.714 27.1171V36.5568H139.51V24.6927H140.783L145.374 34.9749L149.965 24.6927H151.254ZM155.188 24.5379V36.5568H153.985V24.5379H155.188ZM161.559 36.6772C160.768 36.6772 160.069 36.5396 159.461 36.2645C158.865 35.9894 158.395 35.6054 158.051 35.1125C157.707 34.6196 157.524 34.0694 157.501 33.4618H158.773C158.831 34.0464 159.089 34.5623 159.547 35.0093C160.006 35.4449 160.676 35.6627 161.559 35.6627C162.373 35.6627 163.015 35.4564 163.485 35.0437C163.966 34.6196 164.207 34.0866 164.207 33.4446C164.207 32.9288 164.075 32.5161 163.811 32.2066C163.548 31.8857 163.221 31.6507 162.831 31.5017C162.442 31.3412 161.903 31.1692 161.215 30.9858C160.413 30.768 159.776 30.556 159.307 30.3496C158.837 30.1433 158.435 29.8223 158.103 29.3867C157.77 28.9512 157.604 28.3608 157.604 27.6157C157.604 26.9967 157.765 26.4465 158.086 25.9651C158.407 25.4721 158.859 25.0881 159.444 24.813C160.029 24.5379 160.699 24.4004 161.456 24.4004C162.568 24.4004 163.462 24.6755 164.138 25.2257C164.826 25.7645 165.221 26.4637 165.325 27.3234H164.018C163.938 26.8305 163.668 26.3949 163.21 26.0166C162.751 25.6269 162.132 25.432 161.353 25.432C160.63 25.432 160.029 25.6269 159.547 26.0166C159.066 26.3949 158.825 26.9165 158.825 27.5813C158.825 28.0857 158.957 28.4926 159.221 28.8021C159.484 29.1116 159.811 29.3466 160.201 29.5071C160.602 29.6676 161.141 29.8395 161.817 30.0229C162.596 30.2407 163.227 30.4585 163.708 30.6763C164.19 30.8827 164.597 31.2036 164.929 31.6392C165.262 32.0748 165.428 32.6594 165.428 33.393C165.428 33.9547 165.279 34.4878 164.981 34.9921C164.683 35.4965 164.241 35.9034 163.657 36.2129C163.072 36.5224 162.373 36.6772 161.559 36.6772ZM171.399 36.6772C170.608 36.6772 169.909 36.5396 169.301 36.2645C168.705 35.9894 168.235 35.6054 167.891 35.1125C167.547 34.6196 167.364 34.0694 167.341 33.4618H168.613C168.671 34.0464 168.929 34.5623 169.387 35.0093C169.846 35.4449 170.516 35.6627 171.399 35.6627C172.213 35.6627 172.855 35.4564 173.325 35.0437C173.806 34.6196 174.047 34.0866 174.047 33.4446C174.047 32.9288 173.915 32.5161 173.651 32.2066C173.388 31.8857 173.061 31.6507 172.671 31.5017C172.281 31.3412 171.743 31.1692 171.055 30.9858C170.252 30.768 169.616 30.556 169.146 30.3496C168.676 30.1433 168.275 29.8223 167.943 29.3867C167.61 28.9512 167.444 28.3608 167.444 27.6157C167.444 26.9967 167.605 26.4465 167.925 25.9651C168.246 25.4721 168.699 25.0881 169.284 24.813C169.868 24.5379 170.539 24.4004 171.296 24.4004C172.408 24.4004 173.302 24.6755 173.978 25.2257C174.666 25.7645 175.061 26.4637 175.164 27.3234H173.858C173.777 26.8305 173.508 26.3949 173.049 26.0166C172.591 25.6269 171.972 25.432 171.192 25.432C170.47 25.432 169.868 25.6269 169.387 26.0166C168.906 26.3949 168.665 26.9165 168.665 27.5813C168.665 28.0857 168.797 28.4926 169.06 28.8021C169.324 29.1116 169.651 29.3466 170.04 29.5071C170.442 29.6676 170.98 29.8395 171.657 30.0229C172.436 30.2407 173.067 30.4585 173.548 30.6763C174.03 30.8827 174.436 31.2036 174.769 31.6392C175.101 32.0748 175.268 32.6594 175.268 33.393C175.268 33.9547 175.118 34.4878 174.82 34.9921C174.522 35.4965 174.081 35.9034 173.496 36.2129C172.912 36.5224 172.213 36.6772 171.399 36.6772ZM178.797 24.5379V36.5568H177.593V24.5379H178.797ZM186.922 36.6772C185.81 36.6772 184.801 36.4193 183.895 35.9034C182.99 35.3761 182.273 34.6482 181.746 33.7197C181.23 32.7798 180.972 31.7195 180.972 30.5388C180.972 29.3581 181.23 28.3035 181.746 27.375C182.273 26.435 182.99 25.7071 183.895 25.1913C184.801 24.664 185.81 24.4004 186.922 24.4004C188.045 24.4004 189.059 24.664 189.965 25.1913C190.871 25.7071 191.581 26.435 192.097 27.375C192.613 28.3035 192.871 29.3581 192.871 30.5388C192.871 31.7195 192.613 32.7798 192.097 33.7197C191.581 34.6482 190.871 35.3761 189.965 35.9034C189.059 36.4193 188.045 36.6772 186.922 36.6772ZM186.922 35.6283C187.816 35.6283 188.618 35.422 189.329 35.0093C190.04 34.5967 190.601 34.0063 191.014 33.2383C191.427 32.4588 191.633 31.559 191.633 30.5388C191.633 29.5186 191.427 28.6245 191.014 27.8564C190.601 27.0884 190.04 26.4981 189.329 26.0854C188.618 25.6728 187.816 25.4664 186.922 25.4664C186.027 25.4664 185.225 25.6728 184.514 26.0854C183.804 26.4981 183.242 27.0884 182.829 27.8564C182.417 28.6245 182.21 29.5186 182.21 30.5388C182.21 31.559 182.417 32.4588 182.829 33.2383C183.242 34.0063 183.804 34.5967 184.514 35.0093C185.225 35.422 186.027 35.6283 186.922 35.6283ZM204.135 36.5568H202.931L196.277 26.4465V36.5568H195.073V24.5379H196.277L202.931 34.631V24.5379H204.135V36.5568Z" fill="black"/>
<path d="M79.3311 56.4334H72.8566L71.8188 59.4977H67.3954L73.6721 42.1501H78.565L84.8418 59.4977H80.369L79.3311 56.4334ZM78.2438 53.1715L76.0939 46.8206L73.9687 53.1715H78.2438ZM110.623 42.1501L106.101 59.4977H100.986L98.2183 48.0809L95.3517 59.4977H90.2364L85.8378 42.1501H90.36L92.8559 54.7777L95.9448 42.1501H100.591L103.556 54.7777L106.077 42.1501H110.623ZM123.542 56.4334H117.067L116.029 59.4977H111.606L117.883 42.1501H122.776L129.052 59.4977H124.58L123.542 56.4334ZM122.454 53.1715L120.304 46.8206L118.179 53.1715H122.454ZM139.809 59.4977L136.202 52.9491H135.188V59.4977H130.963V42.1501H138.055C139.422 42.1501 140.584 42.389 141.539 42.8668C142.511 43.3445 143.236 44.0035 143.714 44.8437C144.192 45.6674 144.43 46.59 144.43 47.6114C144.43 48.7646 144.101 49.7942 143.442 50.7003C142.8 51.6064 141.844 52.2489 140.575 52.6278L144.579 59.4977H139.809ZM135.188 49.959H137.808C138.582 49.959 139.159 49.7695 139.538 49.3906C139.933 49.0117 140.131 48.4763 140.131 47.7844C140.131 47.1254 139.933 46.6064 139.538 46.2275C139.159 45.8486 138.582 45.6592 137.808 45.6592H135.188V49.959ZM151.309 45.5356V49.0447H156.968V52.3066H151.309V56.1122H157.709V59.4977H147.083V42.1501H157.709V45.5356H151.309ZM175.971 59.4977H171.746L164.678 48.7975V59.4977H160.452V42.1501H164.678L171.746 52.8997V42.1501H175.971V59.4977ZM183.26 45.5356V49.0447H188.919V52.3066H183.26V56.1122H189.66V59.4977H179.034V42.1501H189.66V45.5356H183.26ZM198.681 59.6706C197.412 59.6706 196.275 59.4647 195.27 59.0528C194.265 58.641 193.458 58.0314 192.849 57.2242C192.256 56.4169 191.943 55.445 191.91 54.3082H196.407C196.473 54.9507 196.695 55.445 197.074 55.7909C197.453 56.1204 197.947 56.2852 198.557 56.2852C199.183 56.2852 199.677 56.1451 200.04 55.8651C200.402 55.5685 200.583 55.1649 200.583 54.6542C200.583 54.2259 200.435 53.8717 200.139 53.5916C199.858 53.3115 199.504 53.0809 199.076 52.8997C198.664 52.7184 198.071 52.5125 197.297 52.2819C196.176 51.9359 195.262 51.5899 194.554 51.244C193.845 50.898 193.236 50.3873 192.725 49.7119C192.214 49.0364 191.959 48.155 191.959 47.0677C191.959 45.4532 192.544 44.1929 193.714 43.2869C194.883 42.3643 196.407 41.903 198.285 41.903C200.196 41.903 201.737 42.3643 202.906 43.2869C204.076 44.1929 204.702 45.4615 204.784 47.0924H200.213C200.18 46.5323 199.974 46.0957 199.595 45.7827C199.216 45.4532 198.73 45.2885 198.137 45.2885C197.626 45.2885 197.214 45.4285 196.901 45.7086C196.588 45.9722 196.432 46.3593 196.432 46.87C196.432 47.4302 196.695 47.8667 197.223 48.1797C197.75 48.4928 198.573 48.8305 199.694 49.1929C200.814 49.5718 201.72 49.9343 202.412 50.2802C203.12 50.6262 203.73 51.1287 204.241 51.7876C204.751 52.4466 205.007 53.295 205.007 54.3329C205.007 55.3214 204.751 56.2193 204.241 57.0265C203.746 57.8337 203.022 58.4762 202.066 58.954C201.111 59.4318 199.982 59.6706 198.681 59.6706ZM213.884 59.6706C212.615 59.6706 211.479 59.4647 210.474 59.0528C209.469 58.641 208.662 58.0314 208.052 57.2242C207.459 56.4169 207.146 55.445 207.113 54.3082H211.611C211.676 54.9507 211.899 55.445 212.278 55.7909C212.657 56.1204 213.151 56.2852 213.76 56.2852C214.386 56.2852 214.881 56.1451 215.243 55.8651C215.606 55.5685 215.787 55.1649 215.787 54.6542C215.787 54.2259 215.638 53.8717 215.342 53.5916C215.062 53.3115 214.708 53.0809 214.279 52.8997C213.867 52.7184 213.274 52.5125 212.5 52.2819C211.38 51.9359 210.466 51.5899 209.757 51.244C209.049 50.898 208.439 50.3873 207.928 49.7119C207.418 49.0364 207.162 48.155 207.162 47.0677C207.162 45.4532 207.747 44.1929 208.917 43.2869C210.087 42.3643 211.611 41.903 213.489 41.903C215.4 41.903 216.94 42.3643 218.11 43.2869C219.279 44.1929 219.905 45.4615 219.988 47.0924H215.416C215.383 46.5323 215.177 46.0957 214.798 45.7827C214.419 45.4532 213.933 45.2885 213.34 45.2885C212.83 45.2885 212.418 45.4285 212.105 45.7086C211.792 45.9722 211.635 46.3593 211.635 46.87C211.635 47.4302 211.899 47.8667 212.426 48.1797C212.953 48.4928 213.777 48.8305 214.897 49.1929C216.017 49.5718 216.923 49.9343 217.615 50.2802C218.324 50.6262 218.933 51.1287 219.444 51.7876C219.955 52.4466 220.21 53.295 220.21 54.3329C220.21 55.3214 219.955 56.2193 219.444 57.0265C218.95 57.8337 218.225 58.4762 217.269 58.954C216.314 59.4318 215.185 59.6706 213.884 59.6706Z" fill="#CF302A"/>
</svg>
