<svg width="26" height="25" viewBox="0 0 26 25" fill="none" xmlns="http://www.w3.org/2000/svg">
<path fill-rule="evenodd" clip-rule="evenodd" d="M2.90283 7.29167C2.90283 4.43819 5.21603 2.125 8.0695 2.125H18.4862C21.3397 2.125 23.6528 4.4382 23.6528 7.29167V17.7083C23.6528 20.5618 21.3396 22.875 18.4862 22.875H8.0695C5.21603 22.875 2.90283 20.5618 2.90283 17.7083V7.29167ZM8.0695 4.125C6.3206 4.125 4.90283 5.54276 4.90283 7.29167V17.7083C4.90283 19.4572 6.32059 20.875 8.0695 20.875H18.4862C20.2351 20.875 21.6528 19.4572 21.6528 17.7083V7.29167C21.6528 5.54276 20.2351 4.125 18.4862 4.125H8.0695Z" fill="black"/>
<path fill-rule="evenodd" clip-rule="evenodd" d="M8.11133 12.5C8.11133 9.6465 10.4245 7.33331 13.278 7.33331C16.1315 7.33331 18.4447 9.6465 18.4447 12.5C18.4447 15.3535 16.1315 17.6666 13.278 17.6666C10.4245 17.6666 8.11133 15.3535 8.11133 12.5ZM13.278 9.33331C11.5291 9.33331 10.1113 10.7511 10.1113 12.5C10.1113 14.2489 11.5291 15.6666 13.278 15.6666C15.0269 15.6666 16.4447 14.2489 16.4447 12.5C16.4447 10.7511 15.0269 9.33331 13.278 9.33331Z" fill="black"/>
<path d="M19.007 7.81252C19.5823 7.81252 20.0487 7.34617 20.0487 6.77085C20.0487 6.19554 19.5823 5.72919 19.007 5.72919C18.4317 5.72919 17.9653 6.19554 17.9653 6.77085C17.9653 7.34617 18.4317 7.81252 19.007 7.81252Z" fill="black"/>
<path d="M0.777832 0H25.7778V25H0.777832V0Z" fill="white" fill-opacity="0.01"/>
</svg>
