<svg xmlns="http://www.w3.org/2000/svg" width="869.402" height="869.402" viewBox="0 0 869.402 869.402"><path d="M647-440H200q-17,0-28.5-11.5T160-480q0-17,11.5-28.5T200-520H647L451-716q-12-12-11.5-28T452-772a42.189,42.189,0,0,1,28-11.5q16-.5,28,11.5L772-508a35.09,35.09,0,0,1,8.5,13,44.27,44.27,0,0,1,2.5,15,44.27,44.27,0,0,1-2.5,15,35.09,35.09,0,0,1-8.5,13L508-188q-11,11-27.5,11A40.755,40.755,0,0,1,452-188a38.935,38.935,0,0,1-12-28.5A38.935,38.935,0,0,1,452-245Z" transform="translate(440.895 1107.697) rotate(-45)"/></svg>