<svg width="27" height="20" viewBox="0 0 27 20" fill="none" xmlns="http://www.w3.org/2000/svg">
<path d="M4.66183 1.07406C8.43978 0.885748 11.3783 0.791626 13.4772 0.791626C15.5764 0.791626 18.5159 0.885816 22.2958 1.07413C24.3419 1.17609 25.9967 2.77622 26.1674 4.81766C26.3402 6.88548 26.4266 8.70671 26.4266 10.2814C26.4266 11.8754 26.3381 13.7219 26.161 15.8212C25.9909 17.8373 24.372 19.426 22.353 19.558C19.1215 19.7693 16.1629 19.875 13.4772 19.875C10.7919 19.875 7.83443 19.7693 4.60471 19.5581C2.58643 19.4261 0.96788 17.8384 0.796934 15.8232C0.617531 13.7082 0.527832 11.8609 0.527832 10.2814C0.527832 8.72082 0.615391 6.89897 0.790501 4.81576C0.962039 2.77513 2.61656 1.17602 4.66183 1.07406Z" fill="black"/>
<path d="M11.4338 7.34063V13.3361C11.4338 13.6587 11.6954 13.9203 12.018 13.9203C12.1326 13.9203 12.2446 13.8866 12.3402 13.8234L16.8367 10.8516C17.1059 10.6737 17.1798 10.3112 17.0019 10.0421C16.9594 9.97775 16.9046 9.9224 16.8406 9.8794L12.344 6.85585C12.0763 6.67585 11.7133 6.74694 11.5332 7.01472C11.4685 7.11109 11.4338 7.22457 11.4338 7.34063Z" fill="#FFFFF5"/>
</svg>
