<svg width="22" height="22" viewBox="0 0 22 22" fill="none" xmlns="http://www.w3.org/2000/svg">
<path fill-rule="evenodd" clip-rule="evenodd" d="M0.777832 6.12498C0.777832 3.27151 3.09103 0.958313 5.9445 0.958313H16.3612C19.2147 0.958313 21.5278 3.27151 21.5278 6.12498V16.5416C21.5278 19.3951 19.2146 21.7083 16.3612 21.7083H5.9445C3.09103 21.7083 0.777832 19.3951 0.777832 16.5416V6.12498ZM5.9445 2.95831C4.1956 2.95831 2.77783 4.37608 2.77783 6.12498V16.5416C2.77783 18.2906 4.19559 19.7083 5.9445 19.7083H16.3612C18.1101 19.7083 19.5278 18.2906 19.5278 16.5416V6.12498C19.5278 4.37608 18.1101 2.95831 16.3612 2.95831H5.9445Z" fill="black"/>
<path fill-rule="evenodd" clip-rule="evenodd" d="M5.98608 11.3333C5.98608 8.47981 8.29927 6.16663 11.1528 6.16663C14.0062 6.16663 16.3194 8.47981 16.3194 11.3333C16.3194 14.1868 14.0062 16.5 11.1528 16.5C8.29927 16.5 5.98608 14.1868 5.98608 11.3333ZM11.1528 8.16663C9.40384 8.16663 7.98608 9.58438 7.98608 11.3333C7.98608 13.0822 9.40384 14.5 11.1528 14.5C12.9017 14.5 14.3194 13.0822 14.3194 11.3333C14.3194 9.58438 12.9017 8.16663 11.1528 8.16663Z" fill="black"/>
<path d="M16.882 6.64583C17.4573 6.64583 17.9237 6.17948 17.9237 5.60417C17.9237 5.02885 17.4573 4.5625 16.882 4.5625C16.3067 4.5625 15.8403 5.02885 15.8403 5.60417C15.8403 6.17948 16.3067 6.64583 16.882 6.64583Z" fill="black"/>
</svg>
